<svg width="52" height="33" viewBox="0 0 52 33" fill="none" xmlns="http://www.w3.org/2000/svg">
<path d="M0.00358224 1.02326C22.0601 6.07395 28.9865 -4.37305e-07 40.2887 -4.37305e-07C46.6609 -4.37305e-07 50.2006 1.23491 51.4629 1.78865C51.6249 1.85917 51.7606 1.96529 51.8553 2.09549C51.95 2.22569 52 2.375 52 2.52721V31.4891C52.0003 31.5418 51.9842 31.5936 51.9532 31.6395C51.9223 31.6854 51.8776 31.7238 51.8234 31.751C51.7693 31.7782 51.7076 31.7932 51.6444 31.7946C51.5812 31.796 51.5186 31.7837 51.4629 31.7589C50.2033 31.2089 46.6636 29.9703 40.2851 29.9703C27.8898 29.9703 22.0565 36.0435 -2.15157e-06 30.9928L0.00358224 1.02326Z" fill="url(#paint0_linear_813_1243)"/>
<defs>
<linearGradient id="paint0_linear_813_1243" x1="0.283791" y1="16.501" x2="51.9902" y2="16.501" gradientUnits="userSpaceOnUse">
<stop offset="0.32" stop-color="#FF001F"/>
<stop offset="0.9" stop-color="#EC0626"/>
<stop offset="1" stop-color="#940103"/>
</linearGradient>
</defs>
</svg>
