<svg aria-hidden="true" style="position: absolute; width: 0; height: 0; overflow: hidden;" version="1.1" xmlns="http://www.w3.org/2000/svg" xmlns:xlink="http://www.w3.org/1999/xlink">
<defs>
<symbol id="icon-lift" viewBox="0 0 32 32">
<path d="M29.165 0h-26.331c-0.522 0-0.945 0.423-0.945 0.945v30.11c0 0.522 0.423 0.945 0.945 0.945h26.331c0.522 0 0.945-0.423 0.945-0.945v-30.11c0-0.522-0.423-0.945-0.945-0.945zM15.055 30.11h-5.85v-20.409h5.85v20.409zM22.794 30.11h-5.849v-20.409h5.849v20.409zM28.221 30.11h-3.536v-21.354c0-0.522-0.423-0.945-0.945-0.945h-15.479c-0.522 0-0.945 0.423-0.945 0.945v21.354h-3.536v-28.221h24.441v28.221z"></path>
<path d="M19.213 3.906h-6.425c-0.522 0-0.945 0.423-0.945 0.945s0.423 0.945 0.945 0.945h6.425c0.522 0 0.945-0.423 0.945-0.945s-0.423-0.945-0.945-0.945z"></path>
</symbol>
<symbol id="icon-velvet" viewBox="0 0 32 32">
<path d="M31.062 26.687h-0.237v-17.474c0.506-0.611 0.81-1.394 0.81-2.247 0-1.946-1.583-3.53-3.529-3.53s-3.529 1.583-3.529 3.53c0 0.843 0.297 1.617 0.792 2.225-0.295 4.911-4.383 8.817-9.367 8.817s-9.073-3.905-9.367-8.817c0.495-0.608 0.792-1.382 0.792-2.225 0-1.946-1.583-3.53-3.53-3.53s-3.529 1.583-3.529 3.529c0 0.853 0.304 1.636 0.81 2.247v17.474h-0.237c-0.518 0-0.938 0.42-0.938 0.938s0.42 0.938 0.938 0.938h5.914c0.518 0 0.938-0.42 0.938-0.938s-0.42-0.938-0.938-0.938h-0.237v-11.847c2.019 3.038 5.472 5.045 9.385 5.045s7.366-2.007 9.385-5.044v11.847h-0.237c-0.518 0-0.938 0.42-0.938 0.938s0.42 0.938 0.938 0.938h5.914c0.518 0 0.938-0.42 0.938-0.938s-0.42-0.938-0.938-0.938zM4.738 26.687h-1.686v-16.294c0.27 0.066 0.552 0.102 0.843 0.102s0.573-0.036 0.843-0.102v16.294zM3.895 8.619c-0.911 0-1.653-0.741-1.653-1.653s0.741-1.653 1.653-1.653 1.653 0.741 1.653 1.653c-0 0.911-0.742 1.653-1.653 1.653zM28.948 26.687h-1.686v-16.294c0.27 0.066 0.552 0.102 0.843 0.102s0.573-0.036 0.843-0.102v16.294zM28.105 8.619c-0.911 0-1.653-0.741-1.653-1.653s0.741-1.653 1.653-1.653 1.653 0.741 1.653 1.653c0 0.911-0.741 1.653-1.653 1.653z"></path>
</symbol>
<symbol id="icon-mobile" viewBox="0 0 32 32">
<path d="M19.137 7.411c-0.52 0-0.941 0.421-0.941 0.941v2.786h-4.393v-2.785c0-0.52-0.421-0.941-0.941-0.941s-0.941 0.421-0.941 0.941v7.453c0 0.52 0.421 0.941 0.941 0.941s0.941-0.421 0.941-0.941v-2.786h4.393v2.785c0 0.52 0.421 0.941 0.941 0.941s0.941-0.421 0.941-0.941v-7.453c0-0.52-0.421-0.941-0.941-0.941z"></path>
<path d="M22.619 0h-13.239c-2.059 0-3.733 1.675-3.733 3.733v24.533c0 2.059 1.675 3.733 3.733 3.733h13.239c2.059 0 3.733-1.675 3.733-3.733v-24.533c-0-2.059-1.675-3.733-3.733-3.733zM24.471 28.267c0 1.021-0.83 1.851-1.851 1.851h-13.239c-1.021 0-1.851-0.83-1.851-1.851v-4.11h16.941v4.11zM24.471 22.275h-16.941v-18.541c0-1.021 0.83-1.851 1.851-1.851h13.239c1.021 0 1.851 0.83 1.851 1.851v18.541z"></path>
<path d="M17.443 26.165h-2.887c-0.52 0-0.941 0.421-0.941 0.941s0.421 0.941 0.941 0.941h2.887c0.52 0 0.941-0.421 0.941-0.941s-0.421-0.941-0.941-0.941z"></path>
</symbol>
<symbol id="icon-key-card" viewBox="0 0 32 32">
<path d="M27.592 4.949h-23.185c-2.43 0-4.408 1.977-4.408 4.408v13.286c0 2.43 1.977 4.408 4.408 4.408h23.185c2.43 0 4.408-1.977 4.408-4.408v-13.286c0-2.431-1.977-4.408-4.408-4.408zM1.912 9.357c0-1.376 1.119-2.495 2.495-2.495h23.185c1.376 0 2.495 1.119 2.495 2.495v1.596h-28.175v-1.596zM30.088 22.643c0 1.376-1.119 2.495-2.495 2.495h-23.185c-1.376 0-2.495-1.119-2.495-2.495v-9.777h28.175v9.777z"></path>
<path d="M19.905 15.536c-1.343 0-2.486 0.876-2.887 2.086h-7.009c-0.528 0-0.956 0.428-0.956 0.956v1.941c0 0.528 0.428 0.956 0.956 0.956s0.956-0.428 0.956-0.956v-0.984h0.886v0.984c0 0.528 0.428 0.956 0.956 0.956s0.956-0.428 0.956-0.956v-0.984h3.255c0.402 1.21 1.544 2.086 2.887 2.086 1.677 0 3.042-1.365 3.042-3.042s-1.365-3.042-3.042-3.042zM19.905 19.708c-0.623 0-1.13-0.507-1.13-1.13s0.507-1.13 1.13-1.13c0.623 0 1.13 0.507 1.13 1.13s-0.507 1.13-1.13 1.13z"></path>
</symbol>
<symbol id="icon-lifesaver" viewBox="0 0 32 32">
<path d="M27.314 4.686c-3.022-3.022-7.040-4.686-11.314-4.686s-8.292 1.664-11.314 4.686-4.686 7.040-4.686 11.314 1.664 8.292 4.686 11.314 7.040 4.686 11.314 4.686 8.292-1.664 11.314-4.686c3.022-3.022 4.686-7.040 4.686-11.314s-1.664-8.292-4.686-11.314zM20.741 2.758c3.948 1.418 7.083 4.553 8.501 8.501l-6.678 0.889c-0.658-1.118-1.594-2.053-2.712-2.712l0.889-6.678zM21.678 16c0 3.131-2.547 5.678-5.678 5.678s-5.678-2.547-5.678-5.678c0-3.131 2.547-5.678 5.678-5.678s5.678 2.547 5.678 5.678zM16 1.935c0.98 0 1.936 0.101 2.86 0.292l-0.856 6.428c-0.639-0.175-1.311-0.268-2.004-0.268s-1.365 0.094-2.004 0.268l-0.856-6.428c0.924-0.191 1.88-0.292 2.859-0.292zM11.259 2.758l0.889 6.678c-1.118 0.658-2.053 1.594-2.712 2.712l-6.678-0.889c1.418-3.948 4.553-7.083 8.501-8.501zM1.935 16c0-0.98 0.101-1.936 0.292-2.86l6.428 0.856c-0.175 0.639-0.268 1.311-0.268 2.004s0.094 1.365 0.268 2.004l-6.428 0.856c-0.191-0.924-0.292-1.88-0.292-2.859zM11.259 29.242c-3.948-1.418-7.083-4.553-8.501-8.501l6.678-0.889c0.658 1.118 1.594 2.053 2.712 2.712l-0.889 6.678zM16 30.065c-0.98-0-1.936-0.101-2.86-0.293l0.856-6.428c0.639 0.175 1.311 0.268 2.004 0.268s1.365-0.094 2.004-0.268l0.856 6.428c-0.924 0.192-1.88 0.292-2.859 0.292zM20.741 29.242l-0.889-6.678c1.118-0.658 2.053-1.594 2.712-2.712l6.678 0.889c-1.418 3.948-4.553 7.083-8.501 8.501zM23.345 18.004c0.175-0.639 0.268-1.311 0.268-2.004s-0.094-1.365-0.268-2.004l6.428-0.856c0.191 0.924 0.292 1.88 0.292 2.859s-0.101 1.936-0.293 2.86l-6.428-0.856z"></path>
</symbol>
<symbol id="icon-gym" viewBox="0 0 32 32">
<path d="M32 7.896c0-0.254-0.101-0.498-0.281-0.678l-2.79-2.79 1.004-1.004c0.375-0.375 0.375-0.982 0-1.357s-0.982-0.375-1.357 0l-1.004 1.004-2.79-2.79c-0.18-0.18-0.424-0.281-0.678-0.281s-0.499 0.101-0.678 0.281l-2.343 2.343-1.107-1.107c-0.18-0.18-0.424-0.281-0.678-0.281s-0.499 0.101-0.678 0.281l-3.022 3.022c-0.375 0.375-0.375 0.982 0 1.357l4.575 4.575-9.7 9.7-4.575-4.575c-0.375-0.375-0.982-0.375-1.357 0l-3.022 3.022c-0.18 0.18-0.281 0.424-0.281 0.678s0.101 0.498 0.281 0.678l1.107 1.107-2.344 2.343c-0.18 0.18-0.281 0.424-0.281 0.678s0.101 0.498 0.281 0.678l2.79 2.79-1.004 1.004c-0.375 0.375-0.375 0.982 0 1.357 0.187 0.187 0.433 0.281 0.678 0.281s0.491-0.094 0.678-0.281l1.004-1.004 2.79 2.79c0.18 0.18 0.424 0.281 0.678 0.281s0.499-0.101 0.678-0.281l2.343-2.343 1.107 1.107c0.18 0.18 0.424 0.281 0.678 0.281s0.499-0.101 0.678-0.281l3.022-3.022c0.375-0.375 0.375-0.982 0-1.357l-4.575-4.575 9.7-9.7 4.575 4.575c0.187 0.187 0.433 0.281 0.678 0.281s0.491-0.094 0.678-0.281l3.022-3.022c0.18-0.18 0.281-0.424 0.281-0.678s-0.101-0.498-0.281-0.678l-1.107-1.107 2.343-2.343c0.18-0.18 0.281-0.424 0.281-0.678zM7.896 29.684l-5.58-5.58 1.665-1.665 5.58 5.58-1.665 1.665zM14.368 26.782l-1.665 1.665-9.151-9.151 1.665-1.665 9.151 9.151zM26.782 14.368l-9.151-9.151 1.665-1.665 9.151 9.151-1.665 1.665zM28.019 9.561l-5.58-5.58 1.665-1.665 5.58 5.58-1.665 1.665z"></path>
</symbol>
<symbol id="icon-black-ball" viewBox="0 0 32 32">
<path d="M27.314 4.686c-3.022-3.022-7.040-4.686-11.314-4.686s-8.292 1.664-11.314 4.686c-3.022 3.022-4.686 7.040-4.686 11.314s1.664 8.292 4.686 11.314c3.022 3.022 7.040 4.686 11.314 4.686s8.292-1.664 11.314-4.686c3.022-3.022 4.686-7.040 4.686-11.314s-1.664-8.292-4.686-11.314zM16 30.103c-7.776 0-14.103-6.326-14.103-14.103s6.327-14.103 14.103-14.103 14.103 6.326 14.103 14.103-6.326 14.103-14.103 14.103z"></path>
<path d="M16 7.905c-4.464 0-8.095 3.631-8.095 8.095s3.631 8.095 8.095 8.095 8.095-3.631 8.095-8.095-3.631-8.095-8.095-8.095zM16 22.198c-3.417 0-6.198-2.78-6.198-6.198s2.78-6.198 6.198-6.198 6.198 2.78 6.198 6.198-2.78 6.198-6.198 6.198z"></path>
<path d="M18.603 14.345c0-1.435-1.168-2.603-2.603-2.603s-2.603 1.168-2.603 2.603c0 0.628 0.223 1.205 0.595 1.655-0.372 0.45-0.595 1.027-0.595 1.655 0 1.435 1.168 2.603 2.603 2.603s2.603-1.168 2.603-2.603c0-0.628-0.224-1.205-0.595-1.655 0.372-0.45 0.595-1.027 0.595-1.655zM16 18.361c-0.389 0-0.706-0.317-0.706-0.706s0.317-0.706 0.706-0.706c0.389 0 0.706 0.317 0.706 0.706s-0.317 0.706-0.706 0.706zM16 15.051c-0.389 0-0.706-0.317-0.706-0.706s0.317-0.706 0.706-0.706 0.706 0.317 0.706 0.706c0 0.389-0.317 0.706-0.706 0.706z"></path>
</symbol>
<symbol id="icon-cctv" viewBox="0 0 32 32">
<path d="M31.044 6.375h-30.088c-0.528 0-0.956 0.428-0.956 0.956v4.372c0 0.528 0.428 0.956 0.956 0.956h1.155c0.226 3.358 1.642 6.485 4.045 8.888 2.629 2.629 6.125 4.078 9.844 4.078s7.215-1.448 9.844-4.078c2.403-2.403 3.818-5.529 4.045-8.888h1.155c0.528 0 0.956-0.428 0.956-0.956v-4.372c0-0.528-0.428-0.956-0.956-0.956zM16 23.712c-6.3 0-11.482-4.876-11.971-11.053h23.942c-0.489 6.176-5.671 11.053-11.971 11.053zM30.088 10.747h-28.175v-2.459h28.175v2.459z"></path>
<path d="M16 15.675c-1.814 0-3.289 1.476-3.289 3.289s1.476 3.289 3.289 3.289 3.289-1.476 3.289-3.289-1.476-3.289-3.289-3.289zM16 20.342c-0.759 0-1.377-0.618-1.377-1.377s0.618-1.377 1.377-1.377 1.377 0.618 1.377 1.377c0 0.759-0.618 1.377-1.377 1.377z"></path>
</symbol>
<symbol id="icon-room-service" viewBox="0 0 32 32">
<path d="M31.901 20.284c-0.159-0.319-0.485-0.521-0.842-0.521h-2.635c-0.282-6.284-5.248-11.368-11.483-11.837v-0.803c0-0.52-0.421-0.941-0.941-0.941s-0.941 0.421-0.941 0.941v0.803c-6.234 0.469-11.2 5.553-11.483 11.837h-2.635c-0.357 0-0.683 0.202-0.842 0.521s-0.125 0.701 0.090 0.986c1.056 1.405 2.446 2.562 4.019 3.348s3.333 1.2 5.091 1.2h13.404c1.758 0 3.518-0.415 5.091-1.2s2.962-1.943 4.018-3.348c0.214-0.285 0.249-0.667 0.090-0.986zM16 9.773c5.631 0 10.245 4.432 10.54 9.99h-21.080c0.295-5.559 4.909-9.99 10.54-9.99zM22.702 23.936h-13.404c-2.278 0-4.478-0.832-6.187-2.29h25.778c-1.709 1.457-3.909 2.29-6.187 2.29z"></path>
</symbol>
<symbol id="icon-alarm-clock" viewBox="0 0 32 32">
<path d="M29.484 16.149c0-1.601-0.278-3.16-0.81-4.621 1.551-1.171 2.555-3.029 2.555-5.118 0-3.534-2.875-6.41-6.41-6.41-2.316 0-4.349 1.235-5.476 3.081-1.079-0.274-2.2-0.416-3.343-0.416s-2.264 0.142-3.343 0.416c-1.126-1.846-3.159-3.081-5.476-3.081-3.534 0-6.41 2.876-6.41 6.41 0 2.089 1.004 3.947 2.555 5.118-0.532 1.461-0.81 3.020-0.81 4.621 0 3.602 1.403 6.988 3.949 9.535 0.623 0.623 1.297 1.178 2.012 1.66l-2.138 3.182c-0.292 0.434-0.176 1.022 0.258 1.314 0.162 0.109 0.346 0.161 0.527 0.161 0.305 0 0.604-0.147 0.787-0.419l2.211-3.29c1.809 0.878 3.808 1.342 5.878 1.342 2.103 0 4.133-0.479 5.965-1.384l2.24 3.333c0.183 0.272 0.482 0.419 0.787 0.419 0.182 0 0.365-0.052 0.527-0.161 0.434-0.292 0.549-0.88 0.258-1.314l-2.174-3.236c0.685-0.47 1.333-1.006 1.933-1.606 2.547-2.547 3.949-5.933 3.949-9.535zM24.819 1.893c2.491 0 4.517 2.026 4.517 4.517 0 1.316-0.566 2.502-1.467 3.328-0.615-1.134-1.397-2.186-2.334-3.124-1.262-1.262-2.73-2.243-4.329-2.911 0.825-1.098 2.137-1.81 3.613-1.81zM2.664 6.41c0-2.49 2.026-4.517 4.517-4.517 1.476 0 2.788 0.712 3.613 1.81-1.598 0.669-3.067 1.649-4.329 2.911-0.938 0.938-1.72 1.99-2.334 3.124-0.901-0.826-1.467-2.012-1.467-3.328zM16 27.739c-6.391 0-11.591-5.199-11.591-11.59s5.199-11.59 11.591-11.59 11.59 5.199 11.59 11.59c-0 6.391-5.2 11.59-11.59 11.59z"></path>
<path d="M16 6.114c-5.533 0-10.035 4.502-10.035 10.035s4.502 10.035 10.035 10.035 10.035-4.502 10.035-10.035-4.502-10.035-10.035-10.035zM16 24.29c-4.489 0-8.141-3.652-8.141-8.141s3.652-8.141 8.141-8.141 8.141 3.652 8.141 8.141-3.652 8.141-8.141 8.141z"></path>
<path d="M18.735 17.545l-1.788-1.788v-3.883c0-0.523-0.424-0.947-0.947-0.947s-0.947 0.424-0.947 0.947v4.275c0 0.251 0.1 0.492 0.277 0.669l2.065 2.066c0.185 0.185 0.427 0.277 0.669 0.277s0.485-0.092 0.669-0.277c0.37-0.37 0.37-0.969 0-1.339z"></path>
</symbol>
<symbol id="icon-lamp" viewBox="0 0 32 32">
<path d="M25.474 13.004l-1.962-12.206c-0.074-0.46-0.471-0.798-0.937-0.798h-13.152c-0.466 0-0.863 0.338-0.937 0.798l-1.962 12.206c-0.044 0.274 0.034 0.554 0.215 0.766s0.444 0.333 0.722 0.333h5.907v16h-1.986c-0.524 0-0.949 0.425-0.949 0.949s0.425 0.949 0.949 0.949h9.234c0.524 0 0.949-0.425 0.949-0.949s-0.425-0.949-0.949-0.949h-1.986v-16h1.71v3.791c0 0.524 0.425 0.949 0.949 0.949s0.949-0.425 0.949-0.949v-3.791h2.299c0.278 0 0.542-0.122 0.722-0.333s0.259-0.491 0.215-0.766zM16.734 30.103h-1.468v-16h1.468v16zM8.575 12.206l1.657-10.308h11.535l1.657 10.308h-14.849z"></path>
</symbol>
<symbol id="icon-tissue" viewBox="0 0 32 32">
<path d="M19.531 3.476c-0.957-0.316-2.211-0.489-3.53-0.489s-2.573 0.174-3.53 0.489c-1.653 0.545-1.999 1.377-1.999 1.98s0.347 1.435 1.999 1.98c0.957 0.316 2.211 0.489 3.53 0.489s2.573-0.174 3.53-0.489c1.653-0.545 2-1.377 2-1.98s-0.347-1.435-2-1.98zM16 5.997c-1.609 0-2.765-0.29-3.32-0.541 0.556-0.252 1.711-0.541 3.32-0.541s2.765 0.29 3.32 0.541c-0.555 0.252-1.711 0.541-3.32 0.541z"></path>
<path d="M30.591 5.456c0-3.582-7.34-5.456-14.59-5.456s-14.59 1.874-14.59 5.456h-0.001v21.088c0 0.016 0 0.031 0.001 0.047 0.063 3.551 7.371 5.409 14.59 5.409 7.251 0 14.59-1.874 14.59-5.456l-0-21.088zM6.667 3.195c2.479-0.817 5.794-1.267 9.334-1.267s6.855 0.45 9.334 1.267c2.3 0.758 3.329 1.682 3.329 2.261s-1.029 1.503-3.329 2.261c-2.479 0.817-5.794 1.267-9.334 1.267s-6.855-0.45-9.334-1.267c-2.3-0.758-3.329-1.682-3.329-2.261s1.029-1.503 3.329-2.261zM28.663 26.544c0 0.579-1.029 1.503-3.329 2.261-2.479 0.817-5.794 1.267-9.334 1.267s-6.855-0.45-9.334-1.267c-2.3-0.758-3.329-1.682-3.329-2.261 0-0.012-0-0.025-0.001-0.037v-18.197c2.656 1.716 7.681 2.601 12.663 2.601s10.007-0.885 12.663-2.601v18.233z"></path>
</symbol>
<symbol id="icon-wine-glass" viewBox="0 0 32 32">
<path d="M24.726 10.95l-1.601-10.142c-0.073-0.465-0.474-0.808-0.945-0.808h-12.359c-0.471 0-0.872 0.343-0.945 0.808l-1.601 10.142c-0.404 2.556 0.329 5.15 2.010 7.117 1.472 1.723 3.532 2.802 5.759 3.043v8.975h-4.218c-0.529 0-0.957 0.429-0.957 0.957s0.429 0.957 0.957 0.957h10.351c0.529 0 0.957-0.429 0.957-0.957s-0.429-0.957-0.957-0.957h-4.218v-8.975c2.227-0.242 4.287-1.321 5.759-3.044 1.681-1.967 2.413-4.561 2.010-7.117zM10.638 1.915h10.723l0.825 5.228h-12.374l0.825-5.228zM21.261 16.823c-1.317 1.541-3.234 2.425-5.261 2.425s-3.944-0.884-5.261-2.425c-1.317-1.541-1.89-3.573-1.574-5.575l0.346-2.191h12.979l0.346 2.191c0.316 2.002-0.258 4.034-1.574 5.575z"></path>
</symbol>
<symbol id="icon-coffee-machine" viewBox="0 0 32 32">
<path d="M24.76 0h-15.018c-0.529 0-0.957 0.429-0.957 0.957v6.349c0 0.529 0.429 0.957 0.957 0.957h3.026v3.397c0 0.529 0.429 0.957 0.957 0.957s0.957-0.429 0.957-0.957v-3.397h7.328v15.839h-3.601c1.243-1.217 2.015-2.912 2.015-4.785 0-0.529-0.429-0.957-0.957-0.957h-11.484c-0.529 0-0.957 0.429-0.957 0.957 0 1.873 0.773 3.568 2.015 4.785h-6.357c-0.529 0-0.957 0.429-0.957 0.957v5.983c0 0.529 0.429 0.957 0.957 0.957h26.632c0.529 0 0.957-0.429 0.957-0.957v-25.53c-0-3.040-2.473-5.513-5.513-5.513zM9.037 20.275h9.377c-0.445 2.181-2.378 3.827-4.688 3.827s-4.244-1.646-4.688-3.827zM28.359 30.086h-24.718v-4.068h19.326c0.529 0 0.957-0.429 0.957-0.957v-17.754c0-0.529-0.429-0.957-0.957-0.957h-12.268v-4.434h14.061c1.984 0 3.599 1.614 3.599 3.599v24.573z"></path>
<path d="M22.969 2.74c-0 0-0.001 0-0.001 0-0.528 0-0.956 0.428-0.957 0.956l-0.001 0.849c-0.001 0.529 0.427 0.958 0.956 0.959 0 0 0.001 0 0.001 0 0.528 0 0.956-0.428 0.957-0.956l0.001-0.849c0.001-0.529-0.427-0.958-0.956-0.959z"></path>
<path d="M20.424 2.736c-0 0-0.001 0-0.001 0-0.528 0-0.956 0.428-0.957 0.956l-0.001 0.849c-0.001 0.529 0.427 0.958 0.956 0.959 0 0 0.001 0 0.001 0 0.528 0 0.956-0.428 0.957-0.956l0.001-0.849c0.001-0.529-0.427-0.958-0.956-0.959z"></path>
</symbol>
<symbol id="icon-hanger" viewBox="0 0 32 32">
<path d="M27.98 17.054l-11.023-7.452v-0.783c0-0.494 0.277-0.94 0.706-1.135 1.506-0.685 2.43-2.197 2.354-3.851-0.046-1-0.463-1.943-1.175-2.654s-1.654-1.129-2.654-1.175c-1.111-0.051-2.164 0.343-2.966 1.109s-1.244 1.799-1.244 2.909c0 0.529 0.429 0.957 0.957 0.957s0.957-0.429 0.957-0.957c0-0.581 0.232-1.123 0.652-1.524s0.973-0.608 1.556-0.581c1.075 0.049 1.955 0.93 2.005 2.005 0.040 0.868-0.445 1.662-1.234 2.021-1.111 0.505-1.828 1.635-1.828 2.878v0.783l-11.023 7.452c-0.865 0.585-1.226 1.607-0.92 2.606s1.178 1.643 2.222 1.643h4.15v9.74c0 0.529 0.429 0.957 0.957 0.957h11.143c0.529 0 0.957-0.429 0.957-0.957v-9.74h4.15c1.044 0 1.916-0.645 2.222-1.643s-0.055-2.021-0.92-2.606zM20.614 30.085h-9.228v-10.921h9.228v10.921zM27.070 19.099c-0.033 0.108-0.128 0.289-0.391 0.289h-4.15v-1.181c0-0.529-0.429-0.957-0.957-0.957h-11.143c-0.529 0-0.957 0.429-0.957 0.957v1.181h-4.15c-0.263 0-0.358-0.181-0.391-0.289s-0.056-0.311 0.162-0.459l10.907-7.374 10.907 7.374c0.218 0.147 0.195 0.351 0.162 0.459z"></path>
</symbol>
<symbol id="icon-toothbrush" viewBox="0 0 32 32">
<path d="M30.114 30.992l-1.709-24.787v-5.262c0-0.521-0.422-0.943-0.943-0.943h-8.71c-0.521 0-0.943 0.422-0.943 0.943v5.262l-1.709 24.787c-0.018 0.261 0.073 0.517 0.252 0.709s0.428 0.3 0.689 0.3h12.132c0.261 0 0.511-0.109 0.689-0.3s0.269-0.448 0.252-0.709zM19.695 1.886h6.824v3.408h-6.824v-3.408zM18.051 30.114l1.581-22.933h6.949l1.581 22.933h-10.112z"></path>
<path d="M10.844 0h-8.017c-0.521 0-0.943 0.422-0.943 0.943v30.114c0 0.521 0.422 0.943 0.943 0.943h3.455c0.521 0 0.943-0.422 0.943-0.943v-20.153h3.619c0.521 0 0.943-0.422 0.943-0.943v-9.017c0-0.521-0.422-0.943-0.943-0.943zM5.338 30.114h-1.568v-28.227h1.568v28.227zM9.9 9.017h-2.676v-7.131h2.676v7.131z"></path>
<path d="M23.107 11.917c-2.134 0-3.106 3.489-3.106 6.73s0.972 6.73 3.106 6.73c2.134 0 3.106-3.489 3.106-6.73s-0.972-6.73-3.106-6.73zM23.834 22.178c-0.293 0.889-0.605 1.227-0.727 1.303-0.122-0.076-0.434-0.414-0.727-1.303-0.318-0.964-0.493-2.218-0.493-3.531s0.175-2.567 0.493-3.531c0.293-0.889 0.605-1.227 0.727-1.303 0.122 0.076 0.434 0.414 0.727 1.303 0.318 0.964 0.493 2.218 0.493 3.531s-0.175 2.567-0.493 3.531z"></path>
</symbol>
<symbol id="icon-location" viewBox="0 0 32 32">
<path d="M16 0c-6.207 0-11.258 5.050-11.258 11.258 0 3.751 1.786 8.34 5.31 13.641 2.587 3.891 5.135 6.675 5.242 6.792 0.182 0.198 0.438 0.31 0.707 0.31s0.525-0.112 0.706-0.31c0.107-0.117 2.655-2.901 5.242-6.792 3.523-5.3 5.31-9.889 5.31-13.641-0-6.208-5.050-11.258-11.258-11.258zM16 29.584c-2.287-2.68-9.339-11.495-9.339-18.327 0-5.149 4.189-9.339 9.339-9.339s9.339 4.189 9.339 9.339c0 6.825-7.052 15.646-9.339 18.327z"></path>
<path d="M19.52 6.559c-0.53 0-0.959 0.43-0.959 0.96v3.221h-5.12v-3.221c0-0.53-0.43-0.96-0.96-0.96s-0.96 0.43-0.96 0.96v8.361c0 0.53 0.43 0.959 0.96 0.959s0.96-0.43 0.96-0.96v-3.221h5.12v3.221c0 0.53 0.43 0.959 0.959 0.959s0.959-0.43 0.959-0.96v-8.361c0-0.53-0.43-0.959-0.959-0.959z"></path>
</symbol>
<symbol id="icon-soaps" viewBox="0 0 32 32">
<path d="M11.218 6.894h-0.373v-4.543c0-0.528-0.428-0.956-0.956-0.956h-5.791c-0.528 0-0.956 0.428-0.956 0.956v4.543h-0.373c-1.526 0-2.768 1.241-2.768 2.768v18.176c0 1.526 1.242 2.768 2.768 2.768h8.45c1.526 0 2.768-1.242 2.768-2.768v-18.176c0-1.526-1.242-2.768-2.768-2.768zM5.053 3.307h3.879v3.587h-3.879v-3.587zM1.912 9.662c0-0.472 0.384-0.855 0.855-0.855h8.45c0.472 0 0.855 0.384 0.855 0.855v3.626h-10.161v-3.626zM12.073 27.838c0 0.472-0.384 0.855-0.855 0.855h-8.45c-0.471 0-0.855-0.384-0.855-0.855v-3.626h10.161v3.626zM12.073 22.299h-10.161v-7.099h10.161v7.099z"></path>
<path d="M29.233 6.894h-0.373v-4.543c0-0.528-0.428-0.956-0.956-0.956h-5.791c-0.528 0-0.956 0.428-0.956 0.956v4.543h-0.373c-1.526 0-2.767 1.241-2.767 2.768v18.176c0 1.526 1.241 2.768 2.767 2.768h8.45c1.526 0 2.767-1.242 2.767-2.768v-18.176c0-1.526-1.241-2.768-2.767-2.768zM23.068 3.307h3.879v3.587h-3.879v-3.587zM30.088 27.838c0 0.472-0.384 0.855-0.855 0.855h-8.45c-0.471 0-0.855-0.384-0.855-0.855v-3.626h10.161v3.626zM30.088 22.299h-10.161v-7.099h10.161v7.099zM30.088 13.288h-10.161v-3.626c0-0.472 0.384-0.855 0.855-0.855h8.45c0.471 0 0.855 0.384 0.855 0.855v3.626z"></path>
</symbol>
<symbol id="icon-deck" viewBox="0 0 32 32">
<path d="M18.181 0c-6.959 0-12.62 5.661-12.62 12.62 0 0.521 0.425 0.943 0.946 0.943 0.312 0 0.604-0.154 0.78-0.412 0.483-0.709 1.282-1.133 2.139-1.133s1.656 0.424 2.139 1.133c0.176 0.258 0.468 0.412 0.78 0.412s0.604-0.154 0.78-0.412c0.483-0.709 1.282-1.133 2.139-1.133 0.766 0 1.486 0.34 1.975 0.919v6.208h-0.793c-0.521 0-0.943 0.422-0.943 0.943s0.422 0.943 0.943 0.943h0.793v3.659h-8.32l-6.108-6.107c-0.368-0.368-0.966-0.368-1.334 0s-0.368 0.966 0 1.334l6.384 6.384c0.177 0.177 0.417 0.276 0.667 0.276h3.454l-2.527 3.975c-0.279 0.44-0.15 1.023 0.29 1.302s1.023 0.15 1.302-0.29l3.17-4.987h3.021v4.481c0 0.521 0.422 0.943 0.943 0.943s0.943-0.422 0.943-0.943v-4.481h3.021l3.17 4.987c0.18 0.283 0.485 0.437 0.797 0.437 0.173 0 0.348-0.048 0.505-0.147 0.44-0.279 0.57-0.862 0.29-1.302l-2.527-3.975h3.454c0.521 0 0.943-0.422 0.943-0.943s-0.422-0.943-0.943-0.943h-8.711v-3.659h0.793c0.521 0 0.943-0.422 0.943-0.943s-0.422-0.943-0.943-0.943h-0.793v-6.207c0.489-0.58 1.209-0.92 1.976-0.92 0.856 0 1.656 0.424 2.139 1.133 0.176 0.258 0.468 0.412 0.78 0.412s0.604-0.154 0.78-0.412c0.483-0.71 1.282-1.133 2.139-1.133s1.656 0.424 2.139 1.133c0.176 0.258 0.47 0.412 0.783 0.412 0.521 0 0.943-0.422 0.943-0.943 0-6.959-5.661-12.62-12.62-12.62zM26.936 10.131c-1.084 0-2.116 0.392-2.918 1.084-0.802-0.691-1.834-1.084-2.918-1.084-1.016 0-1.985 0.344-2.763 0.956-0.051-0.008-0.102-0.014-0.156-0.014s-0.104 0.005-0.155 0.014c-0.778-0.612-1.747-0.956-2.763-0.956-1.084 0-2.116 0.392-2.918 1.084-0.802-0.691-1.834-1.084-2.918-1.084-0.617 0-1.217 0.127-1.767 0.364 0.989-4.904 5.331-8.608 10.522-8.608s9.533 3.704 10.522 8.608c-0.55-0.237-1.15-0.364-1.767-0.364z"></path>
</symbol>
<symbol id="icon-reception" viewBox="0 0 32 32">
<path d="M31.045 14.233h-3.336c-0.361-1.54-1.576-2.754-3.116-3.115v-0.718c0-0.527-0.428-0.955-0.955-0.955s-0.955 0.428-0.955 0.955v0.718c-1.54 0.361-2.754 1.575-3.116 3.116h-2.103c-0.324-2.253-1.777-4.146-3.766-5.086 0.605-0.675 0.973-1.567 0.973-2.542 0-2.104-1.712-3.816-3.816-3.816s-3.816 1.712-3.816 3.816c0 0.976 0.369 1.867 0.973 2.542-1.989 0.94-3.442 2.833-3.766 5.086h-3.293c-0.527 0-0.955 0.428-0.955 0.955s0.428 0.955 0.955 0.955h0.714v12.114c0 0.527 0.428 0.955 0.955 0.955h26.752c0.527 0 0.955-0.428 0.955-0.955v-12.114h0.714c0.527 0 0.955-0.428 0.955-0.955s-0.428-0.955-0.955-0.955zM23.639 12.916c0.912 0 1.7 0.54 2.061 1.317h-4.123c0.361-0.777 1.149-1.317 2.061-1.317zM10.857 4.699c1.051 0 1.906 0.855 1.906 1.906s-0.855 1.906-1.906 1.906c-1.051 0-1.906-0.855-1.906-1.906s0.855-1.906 1.906-1.906zM10.857 10.421c2.302 0 4.228 1.64 4.671 3.812h-9.342c0.443-2.173 2.369-3.812 4.671-3.812zM3.579 27.302v-11.159h24.842v11.159h-24.842z"></path>
<path d="M17.973 18.259c-0.527 0-0.955 0.428-0.955 0.955v1.553h-2.313v-1.553c0-0.527-0.428-0.955-0.955-0.955s-0.955 0.428-0.955 0.955v5.016c0 0.527 0.428 0.955 0.955 0.955s0.955-0.428 0.955-0.955v-1.553h2.313v1.553c0 0.527 0.428 0.955 0.955 0.955s0.955-0.428 0.955-0.955v-5.016c0-0.527-0.427-0.955-0.955-0.955z"></path>
</symbol>
<symbol id="icon-table" viewBox="0 0 32 32">
<path d="M31.891 5.226c-0.166-0.319-0.496-0.519-0.855-0.519h-30.072c-0.36 0-0.689 0.2-0.855 0.519s-0.14 0.704 0.066 0.998c1.79 2.55 4.718 4.073 7.834 4.073h7.028v8.203h-1.028c-0.532 0-0.964 0.432-0.964 0.964s0.432 0.964 0.964 0.964h0.91c-0.56 2.812-3.046 4.938-6.020 4.938-0.532 0-0.964 0.432-0.964 0.964s0.432 0.964 0.964 0.964c3.066 0 5.738-1.72 7.102-4.245 1.364 2.525 4.036 4.245 7.102 4.245 0.532 0 0.964-0.432 0.964-0.964s-0.432-0.964-0.964-0.964c-2.974 0-5.46-2.126-6.020-4.938h0.91c0.532 0 0.964-0.432 0.964-0.964s-0.432-0.964-0.964-0.964h-1.028v-8.203h7.028c3.115 0 6.044-1.522 7.834-4.073 0.207-0.294 0.232-0.679 0.066-0.998zM23.992 8.369h-15.983c-1.787 0-3.496-0.627-4.848-1.735h25.678c-1.351 1.108-3.061 1.735-4.847 1.735z"></path>
</symbol>
<symbol id="icon-armchair" viewBox="0 0 32 32">
<path d="M28.798 10.545v-4.411c0-3.095-2.518-5.614-5.614-5.614h-14.369c-3.095 0-5.614 2.518-5.614 5.614v4.411c-1.833 0.431-3.202 2.079-3.202 4.042v5.696c0 4.219 3.19 7.707 7.285 8.18v2.066c0 0.525 0.426 0.951 0.951 0.951s0.951-0.426 0.951-0.951v-2.011h13.627v2.011c0 0.525 0.426 0.951 0.951 0.951s0.951-0.426 0.951-0.951v-2.066c4.095-0.473 7.284-3.961 7.284-8.18v-5.696c0-1.963-1.369-3.61-3.202-4.042zM5.104 6.134c0-2.046 1.665-3.711 3.711-3.711h14.369c2.046 0 3.711 1.665 3.711 3.711v4.411c-1.833 0.431-3.202 2.079-3.202 4.042v5.626h-15.388v-5.625c0-1.963-1.369-3.61-3.202-4.042v-4.411zM30.098 20.283c0 3.492-2.841 6.333-6.333 6.333h-15.529c-3.492 0-6.333-2.841-6.333-6.333v-5.696c0-1.241 1.010-2.251 2.251-2.251s2.251 1.010 2.251 2.251v5.696c0 1.010 0.822 1.832 1.832 1.832h15.529c1.010 0 1.832-0.822 1.832-1.832v-5.696c0-1.241 1.010-2.251 2.251-2.251s2.251 1.010 2.251 2.251v5.696z"></path>
<path d="M13.273 8.103c-0.498 0-0.974 0.437-0.951 0.951 0.023 0.515 0.418 0.951 0.951 0.951 0.498 0 0.974-0.437 0.951-0.951-0.023-0.515-0.418-0.951-0.951-0.951z"></path>
<path d="M13.273 12.991c-0.498 0-0.974 0.437-0.951 0.951 0.023 0.515 0.418 0.951 0.951 0.951 0.498 0 0.974-0.437 0.951-0.951-0.023-0.515-0.418-0.951-0.951-0.951z"></path>
<path d="M18.727 8.103c-0.497 0-0.974 0.437-0.951 0.951 0.023 0.515 0.418 0.951 0.951 0.951 0.497 0 0.974-0.437 0.951-0.951-0.023-0.515-0.418-0.951-0.951-0.951z"></path>
<path d="M18.727 12.991c-0.497 0-0.974 0.437-0.951 0.951 0.023 0.515 0.418 0.951 0.951 0.951 0.497 0 0.974-0.437 0.951-0.951-0.023-0.515-0.418-0.951-0.951-0.951z"></path>
</symbol>
<symbol id="icon-wardrobe" viewBox="0 0 32 32">
<path d="M24.129 0h-16.258c-1.567 0-2.842 1.275-2.842 2.842v24.26c0 1.567 1.275 2.843 2.842 2.843h0.353v1.109c0 0.522 0.424 0.946 0.946 0.946s0.946-0.424 0.946-0.946v-1.109h11.769v1.109c0 0.522 0.424 0.946 0.946 0.946s0.946-0.424 0.946-0.946v-1.109h0.353c1.567 0 2.842-1.275 2.842-2.843v-24.26c-0-1.567-1.275-2.842-2.843-2.842zM6.92 2.842c0-0.524 0.427-0.951 0.951-0.951h7.183v20.414h-8.134v-19.463zM25.080 27.102c0 0.524-0.427 0.951-0.951 0.951h-16.258c-0.524 0-0.951-0.427-0.951-0.951v-2.905h18.159v2.905zM25.080 22.305h-8.134v-20.414h7.183c0.524 0 0.951 0.427 0.951 0.951v19.463z"></path>
<path d="M13.489 9.841c-0.522 0-0.946 0.424-0.946 0.946v2.624c0 0.522 0.423 0.946 0.946 0.946s0.946-0.424 0.946-0.946v-2.624c0-0.522-0.423-0.946-0.946-0.946z"></path>
<path d="M18.512 9.841c-0.522 0-0.946 0.424-0.946 0.946v2.624c0 0.522 0.424 0.946 0.946 0.946s0.946-0.424 0.946-0.946v-2.624c0-0.522-0.424-0.946-0.946-0.946z"></path>
<path d="M17.072 25.179h-2.144c-0.522 0-0.946 0.424-0.946 0.946s0.424 0.946 0.946 0.946h2.144c0.522 0 0.946-0.424 0.946-0.946s-0.424-0.946-0.946-0.946z"></path>
</symbol>
<symbol id="icon-tv" viewBox="0 0 32 32">
<path d="M31.048 2.43h-30.096c-0.526 0-0.952 0.426-0.952 0.952v20.38c0 0.526 0.426 0.952 0.952 0.952h10.473v2.951h-3.489c-0.526 0-0.952 0.426-0.952 0.952s0.426 0.952 0.952 0.952h16.128c0.526 0 0.952-0.426 0.952-0.952s-0.426-0.952-0.952-0.952h-3.489v-2.951h10.472c0.526 0 0.952-0.426 0.952-0.952v-20.38c0-0.526-0.426-0.952-0.952-0.952zM18.672 27.666h-5.343v-2.951h5.343v2.951zM30.096 22.81h-28.192v-1.622h28.192v1.622zM30.096 19.285h-28.192v-14.95h28.192v14.95z"></path>
</symbol>
<symbol id="icon-door-key" viewBox="0 0 32 32">
<path d="M9.868 22.13c-0.599-0.599-1.394-0.928-2.241-0.928s-1.642 0.33-2.241 0.928c-0.599 0.599-0.928 1.394-0.928 2.241s0.33 1.642 0.928 2.241c0.618 0.618 1.429 0.927 2.241 0.927s1.623-0.309 2.241-0.927c1.236-1.236 1.236-3.246 0-4.482zM8.531 25.274c-0.498 0.498-1.309 0.498-1.807 0-0.241-0.241-0.374-0.562-0.374-0.904s0.133-0.662 0.374-0.904c0.241-0.241 0.562-0.374 0.904-0.374s0.662 0.133 0.904 0.374c0.498 0.498 0.498 1.309 0 1.807z"></path>
<path d="M31.852 3.465c-0.411-1.621-1.619-2.853-3.231-3.296s-3.28-0.002-4.462 1.18l-11.886 11.886c-3.389-0.993-7.086-0.037-9.569 2.518-1.739 1.79-2.696 4.159-2.695 6.673s0.959 4.883 2.698 6.672c1.802 1.853 4.217 2.884 6.8 2.902 0.023 0 0.046 0 0.069 0 2.557-0 4.959-0.994 6.769-2.805 1.314-1.314 2.211-2.965 2.595-4.775 0.331-1.562 0.269-3.172-0.177-4.695l11.886-11.886c1.138-1.138 1.599-2.814 1.203-4.374zM29.312 6.502l-0.75 0.75-1.125-1.125c-0.369-0.369-0.968-0.369-1.337 0s-0.369 0.968 0 1.337l1.125 1.125-0.958 0.958-1.125-1.125c-0.369-0.369-0.968-0.369-1.337 0s-0.369 0.968 0 1.337l1.125 1.125-7.915 7.915c-0.26 0.26-0.346 0.647-0.22 0.992 1.018 2.797 0.316 5.964-1.787 8.067-1.453 1.453-3.38 2.251-5.433 2.251-0.018 0-0.037-0-0.055-0-2.073-0.014-4.011-0.842-5.457-2.329-2.871-2.952-2.872-7.756-0.003-10.709 1.473-1.516 3.478-2.331 5.523-2.331 0.881 0 1.769 0.151 2.624 0.462 0.345 0.126 0.732 0.040 0.992-0.22l12.297-12.297c0.695-0.695 1.676-0.954 2.624-0.694s1.658 0.985 1.9 1.938c0.233 0.917-0.038 1.903-0.707 2.572z"></path>
</symbol>
<symbol id="icon-bellboy" viewBox="0 0 32 32">
<path d="M23.299 17.251h-14.599c-3.503 0-6.352 2.85-6.352 6.352v7.451c0 0.522 0.423 0.945 0.945 0.945h25.414c0.522 0 0.945-0.423 0.945-0.945v-7.451c0-3.503-2.85-6.352-6.352-6.352zM18.53 19.141l-2.53 2.53-2.53-2.53h5.060zM4.238 30.11v-6.507c0-2.461 2.002-4.463 4.463-4.463h2.097l4.045 4.046-3.584 6.924h-7.021zM13.387 30.11l2.613-5.048 2.613 5.048h-5.226zM20.741 30.11l-3.584-6.924 4.045-4.046h2.097c2.461 0 4.463 2.002 4.463 4.463v6.506h-7.021z"></path>
<path d="M23.707 23.681h-2.32c-0.522 0-0.945 0.423-0.945 0.945s0.423 0.945 0.945 0.945h2.32c0.522 0 0.945-0.423 0.945-0.945s-0.423-0.945-0.945-0.945z"></path>
<path d="M22.547 0h-13.094c-0.522 0-0.945 0.423-0.945 0.945v7.191c0 4.131 3.361 7.492 7.492 7.492s7.492-3.361 7.492-7.492v-7.191c0-0.522-0.423-0.945-0.945-0.945zM10.398 1.89h11.204v2.531h-11.204v-2.531zM21.602 8.136c0 3.089-2.513 5.602-5.602 5.602s-5.602-2.513-5.602-5.602v-1.825h11.204v1.825z"></path>
</symbol>
<symbol id="icon-broom" viewBox="0 0 32 32">
<path d="M31.056 0.938c-1.251-1.251-3.286-1.251-4.537 0l-8.596 8.596-0.184-0.184c-1.599-1.599-4.147-1.755-5.929-0.363l-11.436 8.932c-0.215 0.168-0.348 0.421-0.365 0.694s0.084 0.54 0.278 0.733l12.375 12.375c0.179 0.18 0.422 0.28 0.675 0.28 0.019 0 0.039-0.001 0.058-0.002 0.273-0.017 0.525-0.15 0.694-0.365l8.932-11.436c1.392-1.782 1.235-4.331-0.363-5.929l-0.196-0.196 8.596-8.596c1.251-1.251 1.251-3.286 0-4.537zM13.247 29.608l-2.782-2.782 3.421-3.764c0.354-0.39 0.326-0.994-0.064-1.348s-0.994-0.326-1.348 0.064l-3.359 3.696-2.582-2.582 3.696-3.359c0.39-0.355 0.419-0.958 0.064-1.348s-0.958-0.419-1.348-0.064l-3.764 3.421-2.782-2.782 9.029-7.052 8.872 8.872-7.052 9.029zM21.515 19.022l-0.032 0.041-8.54-8.54 0.041-0.032c1.023-0.799 2.487-0.709 3.405 0.209l4.918 4.918c0.918 0.918 1.008 2.382 0.209 3.405zM29.706 4.126l-8.596 8.596-1.838-1.838 8.596-8.596c0.507-0.507 1.331-0.507 1.838 0s0.507 1.331 0 1.838z"></path>
</symbol>
<symbol id="icon-bell-ring" viewBox="0 0 32 32">
<path d="M31.032 21.867h-14.065v-1.936h11.089c0.534 0 0.968-0.433 0.968-0.968 0-6.856-5.325-12.491-12.056-12.988v-1.455c0-0.534-0.433-0.968-0.968-0.968s-0.968 0.433-0.968 0.968v1.455c-6.731 0.497-12.056 6.132-12.056 12.988 0 0.534 0.433 0.968 0.968 0.968h11.089v1.936h-14.064c-0.534 0-0.968 0.433-0.968 0.968v4.645c0 0.534 0.433 0.968 0.968 0.968h30.064c0.534 0 0.968-0.433 0.968-0.968v-4.645c0-0.534-0.433-0.968-0.968-0.968zM4.953 17.996c0.492-5.663 5.259-10.121 11.047-10.121s10.555 4.458 11.047 10.121h-22.093zM30.064 26.512h-28.129v-2.709h28.129v2.709z"></path>
</symbol>
<symbol id="icon-hairdryer" viewBox="0 0 32 32">
<path d="M22.43 4.314h-15.225c-3.973 0-7.206 3.232-7.206 7.206 0 2.463 1.242 4.64 3.132 5.941v4.669c0 3.064 2.493 5.556 5.556 5.556 1.429 0 2.591-1.162 2.591-2.591v-7.635c1.645-1.132 2.799-2.928 3.070-4.999h8.080c0.52 0 0.941-0.421 0.941-0.941v-6.265c-0-0.52-0.421-0.941-0.941-0.941zM9.397 25.095c0 0.391-0.318 0.709-0.709 0.709-2.026 0-3.674-1.648-3.674-3.674v-3.745c0.691 0.221 1.427 0.341 2.191 0.341s1.5-0.12 2.192-0.341v6.71zM7.206 16.843c-2.935 0-5.324-2.388-5.324-5.323s2.388-5.324 5.324-5.324 5.323 2.388 5.323 5.324c0 2.935-2.388 5.323-5.324 5.323zM21.489 10.579h-7.139c-0.226-1.727-1.066-3.263-2.293-4.383h9.432v4.383z"></path>
<path d="M7.206 7.835c-2.032 0-3.685 1.653-3.685 3.685s1.653 3.685 3.685 3.685c2.032 0 3.685-1.653 3.685-3.685s-1.653-3.685-3.685-3.685zM7.206 13.322c-0.994 0-1.803-0.809-1.803-1.803s0.809-1.803 1.803-1.803 1.803 0.809 1.803 1.803c0 0.994-0.809 1.803-1.803 1.803z"></path>
<path d="M31.059 4.314h-5.045c-0.52 0-0.941 0.421-0.941 0.941s0.421 0.941 0.941 0.941h5.045c0.52 0 0.941-0.421 0.941-0.941s-0.421-0.941-0.941-0.941z"></path>
<path d="M31.059 7.447h-5.045c-0.52 0-0.941 0.421-0.941 0.941s0.421 0.941 0.941 0.941h5.045c0.52 0 0.941-0.421 0.941-0.941s-0.421-0.941-0.941-0.941z"></path>
<path d="M31.059 10.579h-5.045c-0.52 0-0.941 0.421-0.941 0.941s0.421 0.941 0.941 0.941h5.045c0.52 0 0.941-0.421 0.941-0.941s-0.421-0.941-0.941-0.941z"></path>
</symbol>
<symbol id="icon-hotel" viewBox="0 0 32 32">
<path d="M24.503 8.73h-3.042v-7.783c0-0.523-0.424-0.947-0.947-0.947h-9.026c-0.523 0-0.947 0.424-0.947 0.947v7.783h-3.042c-0.523 0-0.947 0.424-0.947 0.947v21.375c0 0.523 0.424 0.947 0.947 0.947h17.005c0.523 0 0.947-0.424 0.947-0.947v-21.375c0-0.523-0.424-0.947-0.947-0.947zM12.434 1.895h7.131v6.835h-7.131v-6.835zM17.647 30.105h-3.294v-3.284h3.294v3.284zM19.542 30.105v-4.231c0-0.523-0.424-0.947-0.947-0.947h-5.189c-0.523 0-0.947 0.424-0.947 0.947v4.231h-4.014v-19.481h15.111v19.481h-4.014z"></path>
<path d="M17.207 2.768c-0.523 0-0.947 0.424-0.947 0.947v0.65h-0.794v-0.65c0-0.523-0.424-0.947-0.947-0.947s-0.947 0.424-0.947 0.947v3.194c0 0.523 0.424 0.947 0.947 0.947s0.947-0.424 0.947-0.947v-0.65h0.794v0.65c0 0.523 0.424 0.947 0.947 0.947s0.947-0.424 0.947-0.947v-3.194c0-0.523-0.424-0.947-0.947-0.947z"></path>
<path d="M14.259 12.754h-2.49c-0.523 0-0.947 0.424-0.947 0.947s0.424 0.947 0.947 0.947h2.49c0.523 0 0.947-0.424 0.947-0.947s-0.424-0.947-0.947-0.947z"></path>
<path d="M20.231 12.754h-2.49c-0.523 0-0.947 0.424-0.947 0.947s0.424 0.947 0.947 0.947h2.49c0.523 0 0.947-0.424 0.947-0.947s-0.424-0.947-0.947-0.947z"></path>
<path d="M14.259 15.717h-2.49c-0.523 0-0.947 0.424-0.947 0.947s0.424 0.947 0.947 0.947h2.49c0.523 0 0.947-0.424 0.947-0.947s-0.424-0.947-0.947-0.947z"></path>
<path d="M20.231 15.717h-2.49c-0.523 0-0.947 0.424-0.947 0.947s0.424 0.947 0.947 0.947h2.49c0.523 0 0.947-0.424 0.947-0.947s-0.424-0.947-0.947-0.947z"></path>
<path d="M14.259 18.68h-2.49c-0.523 0-0.947 0.424-0.947 0.947s0.424 0.947 0.947 0.947h2.49c0.523 0 0.947-0.424 0.947-0.947s-0.424-0.947-0.947-0.947z"></path>
<path d="M20.231 18.68h-2.49c-0.523 0-0.947 0.424-0.947 0.947s0.424 0.947 0.947 0.947h2.49c0.523 0 0.947-0.424 0.947-0.947s-0.424-0.947-0.947-0.947z"></path>
<path d="M14.259 21.643h-2.49c-0.523 0-0.947 0.424-0.947 0.947s0.424 0.947 0.947 0.947h2.49c0.523 0 0.947-0.424 0.947-0.947s-0.424-0.947-0.947-0.947z"></path>
<path d="M20.231 21.643h-2.49c-0.523 0-0.947 0.424-0.947 0.947s0.424 0.947 0.947 0.947h2.49c0.523 0 0.947-0.424 0.947-0.947s-0.424-0.947-0.947-0.947z"></path>
</symbol>
<symbol id="icon-toilet" viewBox="0 0 32 32">
<path d="M7.361 0.967c-2.737 0-4.963 2.227-4.963 4.963s2.227 4.963 4.963 4.963 4.963-2.226 4.963-4.963c0-2.737-2.226-4.963-4.963-4.963zM7.361 8.981c-1.682 0-3.051-1.369-3.051-3.051s1.369-3.051 3.051-3.051 3.051 1.369 3.051 3.051-1.369 3.051-3.051 3.051z"></path>
<path d="M14.559 13.644c-0.178-0.263-0.475-0.421-0.793-0.421h-12.81c-0.318 0-0.615 0.158-0.792 0.421s-0.213 0.598-0.094 0.892l6.405 15.898c0.146 0.362 0.497 0.599 0.887 0.599s0.741-0.237 0.887-0.599l6.405-15.898c0.119-0.295 0.083-0.629-0.094-0.892zM7.361 27.518l-4.989-12.383h9.978l-4.989 12.383z"></path>
<path d="M24.639 0.967c-2.737 0-4.963 2.227-4.963 4.963s2.227 4.963 4.963 4.963c2.737 0 4.963-2.226 4.963-4.963s-2.227-4.963-4.963-4.963zM24.639 8.981c-1.682 0-3.051-1.369-3.051-3.051s1.369-3.051 3.051-3.051c1.682 0 3.051 1.369 3.051 3.051s-1.369 3.051-3.051 3.051z"></path>
<path d="M31.931 29.72l-6.405-15.898c-0.146-0.362-0.497-0.599-0.887-0.599s-0.741 0.237-0.887 0.599l-6.405 15.898c-0.119 0.295-0.083 0.629 0.094 0.892s0.475 0.421 0.793 0.421h12.81c0.318 0 0.615-0.158 0.793-0.421s0.213-0.598 0.094-0.892zM19.65 29.121l4.989-12.383 4.989 12.383h-9.978z"></path>
</symbol>
<symbol id="icon-extinguisher" viewBox="0 0 32 32">
<path d="M26.805 0.224c-0.214-0.18-0.496-0.257-0.771-0.21l-7.173 1.22c-0.456 0.078-0.79 0.473-0.79 0.936v1.012h-1.677v-2.232c0-0.524-0.425-0.949-0.949-0.949h-3.922c-0.524 0-0.949 0.425-0.949 0.949v2.434c-2.373 0.304-4.466 1.736-5.605 3.89-0.245 0.463-0.068 1.038 0.396 1.283 0.141 0.075 0.293 0.11 0.443 0.11 0.341 0 0.67-0.184 0.84-0.506 0.808-1.529 2.262-2.569 3.926-2.858v1.51c-2.301 1.093-3.896 3.439-3.896 6.151v16.774c0 1.248 1.015 2.263 2.263 2.263h9.086c1.248 0 2.263-1.015 2.263-2.263v-16.774c0-2.712-1.595-5.059-3.896-6.151v-1.733h1.677v1.012c0 0.463 0.334 0.858 0.79 0.936l7.173 1.22c0.053 0.009 0.106 0.014 0.159 0.014 0.222 0 0.44-0.078 0.612-0.224 0.214-0.18 0.337-0.446 0.337-0.725v-6.362c-0-0.28-0.123-0.545-0.337-0.725zM12.471 1.898h2.023v4.259h-2.023v-4.259zM18.39 29.737c0 0.201-0.163 0.364-0.364 0.364h-9.086c-0.201 0-0.364-0.163-0.364-0.364v-5.782h9.815v5.782zM18.39 22.057h-9.815v-4.69h9.815v4.69zM18.39 12.963v2.505h-9.815v-2.505c0-2.706 2.201-4.907 4.907-4.907s4.907 2.202 4.907 4.907zM25.244 6.187l-5.275-0.897v-2.319l5.275-0.897v4.114z"></path>
</symbol>
<symbol id="icon-phone" viewBox="0 0 32 32">
<path d="M25.059 24.859l-3.192-3.192c-0.502-0.502-1.169-0.778-1.878-0.778s-1.376 0.276-1.878 0.778l-1.113 1.113c-0.613 0.614-1.579 0.837-2.719 0.628-1.269-0.232-2.564-0.957-3.648-2.040s-1.808-2.379-2.040-3.648c-0.208-1.14 0.015-2.105 0.628-2.719l1.113-1.113c0.502-0.502 0.778-1.169 0.778-1.878s-0.276-1.376-0.778-1.878l-3.191-3.191c-0.502-0.502-1.169-0.778-1.878-0.778s-1.376 0.276-1.878 0.778l-1.113 1.113c-1.036 1.036-1.728 2.363-2.057 3.946-0.305 1.464-0.285 3.077 0.060 4.794 0.683 3.403 2.624 6.905 5.325 9.606s6.203 4.643 9.607 5.325c0.911 0.183 1.793 0.274 2.639 0.274 0.748 0 1.468-0.072 2.156-0.215 1.583-0.329 2.91-1.021 3.946-2.057l1.113-1.113c1.036-1.036 1.036-2.721 0-3.756zM23.704 27.261l-1.113 1.113c-1.524 1.524-4.079 2.061-7.008 1.474-3.042-0.61-6.187-2.36-8.629-4.802s-4.191-5.586-4.802-8.629c-0.588-2.93-0.050-5.484 1.474-7.008l1.113-1.113c0.14-0.14 0.326-0.217 0.524-0.217s0.384 0.077 0.524 0.217l3.192 3.191c0.14 0.14 0.217 0.326 0.217 0.524s-0.077 0.384-0.217 0.524l-1.113 1.113c-1.072 1.072-1.483 2.641-1.158 4.418 0.301 1.648 1.214 3.302 2.57 4.658s3.010 2.269 4.658 2.57c1.777 0.325 3.346-0.086 4.418-1.158l1.113-1.113c0.14-0.14 0.326-0.217 0.523-0.217s0.384 0.077 0.523 0.217l3.192 3.192c0.289 0.289 0.289 0.758 0 1.047z"></path>
<path d="M29.388 2.612c-1.684-1.684-3.924-2.612-6.306-2.612s-4.621 0.928-6.306 2.612c-1.378 1.378-2.25 3.123-2.523 5.048-0.245 1.73 0.030 3.523 0.776 5.093l-1.184 4.221c-0.094 0.333 0 0.691 0.245 0.936 0.182 0.182 0.427 0.281 0.677 0.281 0.086 0 0.173-0.012 0.259-0.036l4.221-1.184c1.57 0.746 3.363 1.021 5.093 0.776 1.924-0.273 3.67-1.145 5.048-2.523 1.685-1.684 2.612-3.924 2.612-6.306s-0.927-4.621-2.612-6.306zM28.034 13.869c-2.192 2.192-5.503 2.688-8.238 1.233-0.14-0.074-0.294-0.112-0.45-0.112-0.087 0-0.174 0.012-0.259 0.036l-2.937 0.824 0.824-2.937c0.067-0.237 0.039-0.491-0.077-0.709-1.455-2.735-0.959-6.045 1.233-8.238 1.323-1.322 3.081-2.051 4.951-2.051s3.629 0.728 4.951 2.051c2.73 2.73 2.73 7.172-0 9.902z"></path>
<path d="M19.695 7.942c-0.501 0-0.981 0.441-0.958 0.958 0.023 0.519 0.421 0.958 0.958 0.958 0.501 0 0.981-0.441 0.958-0.958-0.023-0.519-0.421-0.958-0.958-0.958z"></path>
<path d="M23.1 7.942c-0.501 0-0.981 0.441-0.958 0.958 0.023 0.519 0.421 0.958 0.958 0.958 0.501 0 0.981-0.441 0.958-0.958-0.023-0.519-0.421-0.958-0.958-0.958z"></path>
<path d="M26.506 7.942c-0.501 0-0.981 0.441-0.958 0.958 0.023 0.519 0.421 0.958 0.958 0.958 0.501 0 0.981-0.441 0.958-0.958-0.023-0.519-0.421-0.958-0.958-0.958z"></path>
</symbol>
<symbol id="icon-cutlery" viewBox="0 0 32 32">
<path d="M12.536 0.197c-0.523 0-0.947 0.424-0.947 0.947v4.915c0 1.232-0.79 2.282-1.889 2.673v-7.785c0-0.523-0.424-0.947-0.947-0.947s-0.947 0.424-0.947 0.947v7.785c-1.099-0.391-1.889-1.441-1.889-2.673v-4.915c0-0.523-0.424-0.947-0.947-0.947s-0.947 0.424-0.947 0.947v4.915c0 2.284 1.627 4.195 3.783 4.634v5.23c-1.379 0.409-2.388 1.687-2.388 3.197v9.544c0 1.839 1.496 3.335 3.335 3.335s3.335-1.496 3.335-3.335v-9.544c0-1.51-1.009-2.788-2.388-3.197v-5.23c2.156-0.44 3.783-2.351 3.783-4.634v-4.915c0-0.523-0.424-0.947-0.947-0.947zM10.195 19.121v9.544c0 0.795-0.646 1.441-1.441 1.441h-0c-0.795 0-1.441-0.646-1.441-1.441v-9.544c0-0.795 0.646-1.441 1.441-1.441s1.441 0.646 1.441 1.441z"></path>
<path d="M23.945 15.923v-4.667c2.294-0.506 4.031-2.814 4.031-5.577 0-3.132-2.233-5.68-4.978-5.68s-4.978 2.548-4.978 5.68c0 2.763 1.738 5.070 4.031 5.577v4.667c-1.379 0.409-2.388 1.687-2.388 3.197v9.544c0 1.839 1.496 3.335 3.335 3.335s3.335-1.496 3.335-3.335v-9.544c0-1.51-1.009-2.788-2.388-3.197zM19.914 5.68c0-2.088 1.384-3.786 3.084-3.786s3.084 1.698 3.084 3.786c0 2.088-1.384 3.786-3.084 3.786s-3.084-1.699-3.084-3.786zM24.439 28.665c0 0.795-0.646 1.441-1.441 1.441s-1.441-0.646-1.441-1.441v-9.544c0-0.795 0.646-1.441 1.441-1.441s1.441 0.646 1.441 1.441v9.544z"></path>
</symbol>
<symbol id="icon-bath" viewBox="0 0 32 32">
<path d="M31.599 18.62c0-0.528-0.428-0.955-0.955-0.955h-1.912v-13.025c0-2.558-2.082-4.64-4.64-4.64s-4.64 2.082-4.64 4.64v1.742c0 0.528 0.428 0.955 0.955 0.955s0.955-0.428 0.955-0.955v-1.742c0-1.505 1.224-2.729 2.729-2.729s2.729 1.224 2.729 2.729v13.025h-25.465c-0.528 0-0.955 0.428-0.955 0.955 0 4.311 2.727 7.998 6.546 9.426-0.735 0.772-1.189 1.831-1.189 2.999 0 0.528 0.428 0.955 0.955 0.955s0.955-0.428 0.955-0.955c0-1.304 0.995-2.366 2.219-2.366 0.045 0 12.18 0 12.225 0 1.224 0 2.219 1.061 2.219 2.366 0 0.528 0.428 0.955 0.955 0.955s0.955-0.428 0.955-0.955c0-1.167-0.454-2.226-1.189-2.999 3.82-1.428 6.546-5.114 6.546-9.425zM21.54 26.768h-11.081c-4.17 0-7.618-3.148-8.092-7.193h27.266c-0.474 4.044-3.923 7.193-8.092 7.193z"></path>
<path d="M20.407 8.994c-0.528 0-0.955 0.428-0.955 0.955v0.828c0 0.528 0.428 0.955 0.955 0.955s0.955-0.428 0.955-0.955v-0.828c-0-0.528-0.428-0.955-0.955-0.955z"></path>
<path d="M20.407 13.58c-0.528 0-0.955 0.428-0.955 0.955v0.828c0 0.528 0.428 0.955 0.955 0.955s0.955-0.428 0.955-0.955v-0.828c-0-0.528-0.428-0.955-0.955-0.955z"></path>
</symbol>
<symbol id="icon-washing-machine" viewBox="0 0 32 32">
<path d="M26.76 0h-21.519c-1.495 0-2.712 1.216-2.712 2.712v26.577c0 1.495 1.216 2.712 2.712 2.712h21.519c1.495 0 2.712-1.216 2.712-2.712v-26.577c0-1.495-1.216-2.712-2.712-2.712zM4.439 2.712c0-0.442 0.359-0.801 0.801-0.801h21.519c0.442 0 0.801 0.359 0.801 0.801v4.068h-23.121v-4.068zM27.561 29.288h-0c0 0.442-0.359 0.801-0.801 0.801h-21.519c-0.442 0-0.801-0.359-0.801-0.801v-20.598h23.121v20.598z"></path>
<path d="M16 11.155c-4.54 0-8.234 3.694-8.234 8.234s3.694 8.234 8.234 8.234c4.54 0 8.234-3.694 8.234-8.234s-3.694-8.234-8.234-8.234zM16 13.066c3.328 0 6.064 2.585 6.306 5.852-2.861 1.999-4.274 0.87-5.419-0.045-0.107-0.085-0.207-0.166-0.307-0.242-0.087-0.066-0.178-0.139-0.274-0.216-1.063-0.849-3.101-2.478-6.338-0.925 0.809-2.561 3.207-4.424 6.032-4.424zM16 25.714c-3.328 0-6.064-2.584-6.306-5.852 2.861-1.999 4.274-0.87 5.419 0.045 0.107 0.085 0.207 0.166 0.307 0.242 0.087 0.066 0.178 0.139 0.274 0.216 0.744 0.595 1.966 1.572 3.742 1.572 0.761 0 1.625-0.18 2.596-0.646-0.809 2.561-3.207 4.423-6.032 4.423z"></path>
<path d="M25.256 3.39h-1.41c-0.528 0-0.955 0.428-0.955 0.955s0.428 0.955 0.955 0.955h1.41c0.528 0 0.955-0.428 0.955-0.955s-0.428-0.955-0.955-0.955z"></path>
<path d="M21.018 3.39h-1.41c-0.528 0-0.955 0.428-0.955 0.955s0.428 0.955 0.955 0.955h1.41c0.528 0 0.955-0.428 0.955-0.955s-0.428-0.955-0.955-0.955z"></path>
<path d="M11.401 3.39h-4.657c-0.528 0-0.955 0.428-0.955 0.955s0.428 0.955 0.955 0.955h4.657c0.528 0 0.955-0.428 0.955-0.955s-0.428-0.955-0.955-0.955z"></path>
</symbol>
<symbol id="icon-stairs" viewBox="0 0 32 32">
<path d="M31.040 0h-7.52c-0.53 0-0.96 0.43-0.96 0.96v6.56h-6.56c-0.53 0-0.96 0.43-0.96 0.96v6.56h-6.56c-0.53 0-0.96 0.43-0.96 0.96v6.56h-6.56c-0.53 0-0.96 0.43-0.96 0.96v7.52c0 0.53 0.43 0.96 0.96 0.96h30.080c0.53 0 0.96-0.43 0.96-0.96v-30.080c-0-0.53-0.43-0.96-0.96-0.96zM30.080 30.080h-28.16v-5.6h6.56c0.53 0 0.96-0.43 0.96-0.96v-6.56h6.56c0.53 0 0.96-0.43 0.96-0.96v-6.56h6.56c0.53 0 0.96-0.43 0.96-0.96v-6.56h5.6v28.16z"></path>
</symbol>
<symbol id="icon-cocktail" viewBox="0 0 32 32">
<path d="M30.808 7.043c0.274-0.276 0.355-0.69 0.206-1.049s-0.5-0.593-0.889-0.593h-16.559c-0.466-3.054-3.109-5.401-6.291-5.401-3.509 0-6.364 2.855-6.364 6.364s2.855 6.364 6.364 6.364c1.368 0 2.67-0.429 3.752-1.223l6.71 6.75v11.819h-5.061c-0.532 0-0.963 0.431-0.963 0.963s0.431 0.963 0.963 0.963h12.048c0.532 0 0.963-0.431 0.963-0.963s-0.431-0.963-0.963-0.963h-5.061v-11.819l11.145-11.212zM7.276 10.801c-2.447 0-4.438-1.991-4.438-4.438s1.991-4.438 4.438-4.438c2.116 0 3.89 1.489 4.331 3.475h-4.331c-0.389 0-0.74 0.234-0.889 0.593s-0.068 0.773 0.206 1.049l3.054 3.073c-0.703 0.446-1.518 0.686-2.371 0.686zM9.591 7.327h18.22l-4.102 4.127h-10.016l-4.102-4.127zM18.7 16.492l-3.094-3.112h6.187l-3.094 3.112z"></path>
</symbol>
<symbol id="icon-luggage" viewBox="0 0 32 32">
<path d="M31.062 24.425h-2.034v-7.717c0-6.868-5.342-12.511-12.090-12.994v-1.974c0-0.518-0.42-0.938-0.938-0.938s-0.938 0.42-0.938 0.938v1.974c-6.747 0.483-12.090 6.126-12.090 12.994v7.717h-2.034c-0.518 0-0.938 0.42-0.938 0.938s0.42 0.938 0.938 0.938h2.39c-0.228 0.455-0.356 0.967-0.356 1.51 0 1.867 1.519 3.386 3.386 3.386s3.386-1.519 3.386-3.386c0-0.542-0.129-1.055-0.356-1.51h13.224c-0.228 0.455-0.356 0.967-0.356 1.51 0 1.867 1.519 3.386 3.386 3.386s3.386-1.519 3.386-3.386c0-0.542-0.129-1.055-0.356-1.51h2.39c0.518 0 0.938-0.42 0.938-0.938s-0.42-0.938-0.938-0.938zM6.358 29.321c-0.832 0-1.51-0.677-1.51-1.51s0.677-1.51 1.51-1.51 1.51 0.677 1.51 1.51-0.677 1.51-1.51 1.51zM21.014 23.521c0 0.499-0.406 0.904-0.904 0.904h-8.22c-0.499 0-0.904-0.406-0.904-0.904v-5.483c0-0.499 0.406-0.904 0.904-0.904h8.22c0.499 0 0.904 0.406 0.904 0.904v5.483zM14.697 15.258v-0.025c0-0.719 0.585-1.303 1.303-1.303s1.303 0.585 1.303 1.303v0.025h-2.607zM25.642 29.321c-0.832 0-1.51-0.677-1.51-1.51s0.677-1.51 1.51-1.51 1.51 0.677 1.51 1.51c0 0.832-0.677 1.51-1.51 1.51zM27.151 24.425h-4.412c0.098-0.284 0.152-0.588 0.152-0.904v-5.483c0-1.533-1.247-2.781-2.781-2.781h-0.93v-0.025c0-1.753-1.427-3.18-3.18-3.18s-3.18 1.427-3.18 3.18v0.025h-0.93c-1.533 0-2.781 1.247-2.781 2.781v5.483c0 0.316 0.054 0.62 0.152 0.904h-4.412v-7.717c0-6.149 5.003-11.151 11.151-11.151s11.151 5.002 11.151 11.151v7.717z"></path>
</symbol>
<symbol id="icon-parking" viewBox="0 0 32 32">
<path d="M26.84 0h-21.681c-2.845 0-5.16 2.315-5.16 5.16v21.681c0 2.845 2.315 5.16 5.16 5.16h21.681c2.845 0 5.16-2.315 5.16-5.16v-21.681c0-2.845-2.315-5.16-5.16-5.16zM30.11 26.84c0 1.803-1.467 3.27-3.27 3.27h-21.681c-1.803 0-3.27-1.467-3.27-3.27v-21.681c0-1.803 1.467-3.27 3.27-3.27h21.681c1.803 0 3.27 1.467 3.27 3.27v21.681z"></path>
<path d="M16.661 5.26h-4.519c-1.737 0-3.15 1.413-3.15 3.15v17.385c0 0.522 0.423 0.945 0.945 0.945h4.409c0.522 0 0.945-0.423 0.945-0.945v-5.322h1.37c4.194 0 7.606-3.412 7.606-7.606s-3.412-7.606-7.606-7.606zM16.661 18.583h-2.315c-0.522 0-0.945 0.423-0.945 0.945v5.322h-2.52v-16.44c0-0.695 0.565-1.26 1.26-1.26h4.519c3.152 0 5.716 2.564 5.716 5.716s-2.564 5.716-5.716 5.716z"></path>
<path d="M16.661 9.67h-2.315c-0.522 0-0.945 0.423-0.945 0.945v4.503c0 0.522 0.423 0.945 0.945 0.945h2.315c1.763 0 3.197-1.434 3.197-3.197s-1.434-3.197-3.197-3.197zM16.661 14.173h-1.37v-2.614h1.37c0.721 0 1.307 0.586 1.307 1.307s-0.586 1.307-1.307 1.307z"></path>
</symbol>
<symbol id="icon-taxi" viewBox="0 0 32 32">
<path d="M29.126 15.109h-0.554l-1.668-6.589c-0.395-1.559-1.794-2.648-3.402-2.648h-2.157v-0.443c0-1.561-1.27-2.831-2.831-2.831h-5.028c-1.561 0-2.831 1.27-2.831 2.831v0.443h-2.157c-1.608 0-3.007 1.089-3.402 2.648l-1.668 6.589h-0.554c-1.585 0-2.874 1.289-2.874 2.874v4.708c0 1.559 1.249 2.832 2.798 2.872v1.852c0 1.095 0.891 1.986 1.986 1.986h4.028c1.095 0 1.986-0.891 1.986-1.986v-1.85h10.402v1.85c0 1.095 0.891 1.986 1.986 1.986h4.028c1.095 0 1.986-0.891 1.986-1.986v-1.852c1.55-0.040 2.799-1.313 2.799-2.872v-4.708c0-1.585-1.289-2.874-2.874-2.874zM12.576 5.429c0-0.502 0.408-0.91 0.911-0.91h5.028c0.502 0 0.911 0.408 0.911 0.91v0.443h-6.849v-0.443zM6.958 8.991c0.179-0.706 0.812-1.199 1.54-1.199h15.004c0.728 0 1.361 0.493 1.54 1.199l1.549 6.118h-1.586l-1.356-5.265c-0.109-0.424-0.492-0.721-0.93-0.721h-13.437c-0.438 0-0.821 0.296-0.93 0.721l-1.357 5.265h-1.585l1.549-6.118zM23.022 15.109h-14.044l1.047-4.065h11.949l1.047 4.065zM8.879 27.415c0 0.036-0.029 0.066-0.066 0.066h-4.028c-0.036 0-0.066-0.029-0.066-0.066v-1.85h4.16v1.85zM27.281 27.415h-0c0 0.036-0.029 0.066-0.066 0.066h-4.028c-0.036 0-0.066-0.029-0.066-0.066v-1.85h4.16v1.85zM29.126 23.645h-26.252c-0.526 0-0.954-0.428-0.954-0.954v-4.708c0-0.526 0.428-0.954 0.954-0.954h26.252c0.526 0 0.954 0.428 0.954 0.954v4.708h0c0 0.526-0.428 0.954-0.954 0.954z"></path>
<path d="M6.766 17.623c-1.497 0-2.714 1.218-2.714 2.714s1.218 2.714 2.714 2.714 2.714-1.218 2.714-2.714-1.217-2.714-2.714-2.714zM6.766 21.131c-0.438 0-0.794-0.356-0.794-0.794s0.356-0.794 0.794-0.794c0.438 0 0.794 0.356 0.794 0.794s-0.356 0.794-0.794 0.794z"></path>
<path d="M25.207 17.623c-1.497 0-2.714 1.218-2.714 2.714s1.218 2.714 2.714 2.714c1.497 0 2.714-1.218 2.714-2.714s-1.217-2.714-2.714-2.714zM25.207 21.131c-0.438 0-0.794-0.356-0.794-0.794s0.356-0.794 0.794-0.794c0.438 0 0.794 0.356 0.794 0.794s-0.356 0.794-0.794 0.794z"></path>
<path d="M18.046 19.377h-4.092c-0.53 0-0.96 0.43-0.96 0.96s0.43 0.96 0.96 0.96h4.092c0.53 0 0.96-0.43 0.96-0.96s-0.43-0.96-0.96-0.96z"></path>
</symbol>
<symbol id="icon-safe-box" viewBox="0 0 32 32">
<path d="M26.964 0h-21.928c-2.777 0-5.036 2.259-5.036 5.036v21.928c0 2.777 2.259 5.036 5.036 5.036h21.928c2.777 0 5.036-2.259 5.036-5.036v-21.928c0-2.777-2.259-5.036-5.036-5.036zM1.912 13.974h2.065v4.051h-2.065v-4.051zM26.964 30.088h-21.928c-1.722 0-3.124-1.401-3.124-3.124v-7.026h2.065v5.329c0 1.52 1.236 2.756 2.756 2.756h18.533c1.52 0 2.756-1.236 2.756-2.756v-18.533c0-1.52-1.236-2.756-2.756-2.756h-18.533c-1.52 0-2.756 1.236-2.756 2.756v5.329h-2.065v-7.026c0-1.722 1.401-3.124 3.124-3.124h21.928c1.722 0 3.124 1.401 3.124 3.124v21.928h0c0 1.722-1.401 3.124-3.124 3.124zM5.889 6.734c0-0.465 0.379-0.844 0.844-0.844h18.533c0.465 0 0.844 0.379 0.844 0.844v18.533c0 0.465-0.379 0.844-0.844 0.844h-18.533c-0.465 0-0.844-0.379-0.844-0.844 0-0 0-18.533 0-18.533z"></path>
<path d="M16 9.243c-3.726 0-6.757 3.031-6.757 6.757s3.031 6.757 6.757 6.757 6.757-3.031 6.757-6.757-3.031-6.757-6.757-6.757zM16 14.789c0.668 0 1.211 0.543 1.211 1.211s-0.543 1.211-1.211 1.211-1.211-0.543-1.211-1.211 0.543-1.211 1.211-1.211zM11.967 18.681c-0.512-0.768-0.812-1.69-0.812-2.68 0-2.344 1.674-4.304 3.888-4.749v1.776c-1.256 0.405-2.167 1.584-2.167 2.973 0 0.513 0.125 0.998 0.346 1.425l-1.255 1.255zM16 20.845c-0.991-0-1.912-0.3-2.681-0.812l1.255-1.255c0.428 0.221 0.912 0.346 1.426 0.346s0.998-0.125 1.425-0.346l1.255 1.255c-0.768 0.512-1.69 0.812-2.68 0.812zM20.033 18.681l-1.255-1.255c0.221-0.428 0.346-0.912 0.346-1.426 0-1.389-0.911-2.568-2.167-2.973v-1.776c2.215 0.445 3.888 2.405 3.888 4.749 0 0.991-0.299 1.913-0.812 2.681z"></path>
</symbol>
<symbol id="icon-wifi" viewBox="0 0 32 32">
<path d="M18.963 21.838c-1.634-1.634-4.293-1.634-5.927 0s-1.634 4.293 0 5.927c0.817 0.817 1.89 1.226 2.963 1.226s2.146-0.409 2.963-1.226c1.634-1.634 1.634-4.293 0-5.927zM17.596 26.397c-0.88 0.88-2.311 0.88-3.191 0s-0.88-2.311 0-3.191c0.44-0.44 1.018-0.66 1.596-0.66s1.156 0.22 1.596 0.66c0.88 0.88 0.88 2.311-0 3.191z"></path>
<path d="M25.684 15.552c-5.34-5.34-14.029-5.34-19.369 0-0.181 0.181-0.283 0.427-0.283 0.684s0.102 0.503 0.283 0.684l2.951 2.951c0.181 0.181 0.427 0.283 0.684 0.283s0.503-0.102 0.684-0.283c1.43-1.43 3.336-2.218 5.365-2.218s3.935 0.788 5.365 2.218c0.181 0.181 0.427 0.283 0.684 0.283s0.503-0.102 0.684-0.283l2.951-2.951c0.181-0.181 0.283-0.427 0.283-0.684s-0.102-0.502-0.283-0.684zM22.015 17.854c-1.692-1.383-3.795-2.135-6.015-2.135s-4.322 0.752-6.015 2.135l-1.59-1.59c4.372-3.711 10.837-3.711 15.209 0l-1.59 1.59z"></path>
<path d="M31.717 9.52c-4.198-4.198-9.78-6.51-15.717-6.51s-11.519 2.312-15.717 6.51c-0.378 0.378-0.378 0.99 0 1.368l2.951 2.951c0.378 0.378 0.99 0.378 1.368 0 6.285-6.285 16.511-6.285 22.795 0 0.189 0.189 0.436 0.283 0.684 0.283s0.495-0.094 0.684-0.283l2.951-2.951c0.378-0.378 0.378-0.99 0-1.368zM28.063 11.805c-6.84-6.151-17.286-6.151-24.127 0l-1.586-1.586c3.742-3.409 8.552-5.275 13.649-5.275s9.906 1.866 13.649 5.275l-1.586 1.586z"></path>
</symbol>
<symbol id="icon-swimming-pool" viewBox="0 0 32 32">
<path d="M29.536 23.445c-0.428-0.302-1.020-0.201-1.322 0.227-0.004 0.006-0.431 0.576-1.234 0.943-1.14 0.522-2.468 0.394-3.946-0.381-0.059-0.031-0.118-0.061-0.178-0.092v-17.379c0-2.683 2.183-4.866 4.866-4.866 0.524 0 0.949-0.425 0.949-0.949s-0.425-0.949-0.949-0.949c-3.729 0-6.764 3.034-6.764 6.764v2.897h-14.838v-2.897c0-2.683 2.183-4.866 4.866-4.866 0.524 0 0.949-0.425 0.949-0.949s-0.425-0.949-0.949-0.949c-3.729 0-6.764 3.034-6.764 6.764v16.642c-0.529 0.206-1.065 0.433-1.608 0.683-0.476 0.219-0.684 0.782-0.465 1.258s0.783 0.684 1.259 0.465c8.162-3.757 14.698-2.018 18.744 0.103 1.284 0.673 2.412 0.91 3.365 0.91 0.921 0 1.678-0.221 2.253-0.485 1.266-0.58 1.922-1.473 1.993-1.573 0.302-0.428 0.201-1.020-0.227-1.322zM20.958 23.276c-3.734-1.502-8.803-2.374-14.838-0.529v-4.501h14.838v5.030zM20.958 16.349h-14.838v-4.791h14.838v4.791z"></path>
<path d="M29.536 28.62c-0.428-0.302-1.020-0.201-1.322 0.227-0.004 0.006-0.431 0.576-1.234 0.943-1.14 0.523-2.468 0.394-3.946-0.381-4.423-2.319-11.556-4.226-20.418-0.146-0.476 0.219-0.684 0.782-0.465 1.258s0.783 0.684 1.258 0.465c8.162-3.757 14.698-2.018 18.744 0.103 1.284 0.673 2.412 0.91 3.365 0.91 0.921 0 1.678-0.221 2.253-0.485 1.266-0.58 1.922-1.473 1.993-1.573 0.302-0.428 0.201-1.020-0.227-1.322z"></path>
</symbol>
<symbol id="icon-air-conditioner" viewBox="0 0 32 32">
<path d="M27.968 3.79h-23.937c-2.223 0-4.032 1.809-4.032 4.032v9.071c0 2.223 1.808 4.032 4.032 4.032h23.937c2.223 0 4.032-1.808 4.032-4.032v-9.071c-0-2.223-1.809-4.032-4.032-4.032zM24.882 19.034h-17.764v-0.284c0-1.163 0.947-2.11 2.11-2.11h13.543c1.164 0 2.11 0.947 2.11 2.11v0.284zM30.11 16.892c0 1.181-0.961 2.142-2.142 2.142h-1.197v-0.284c0-2.206-1.794-4-4-4h-13.543c-2.206 0-4 1.794-4 4v0.284h-1.197c-1.181 0-2.142-0.961-2.142-2.142v-9.071c0-1.181 0.961-2.142 2.142-2.142h23.937c1.181 0 2.142 0.961 2.142 2.142v9.071z"></path>
<path d="M26.834 7.38h-1.205c-0.522 0-0.945 0.423-0.945 0.945s0.423 0.945 0.945 0.945h1.205c0.522 0 0.945-0.423 0.945-0.945s-0.423-0.945-0.945-0.945z"></path>
<path d="M22.299 7.38h-1.205c-0.522 0-0.945 0.423-0.945 0.945s0.423 0.945 0.945 0.945h1.205c0.522 0 0.945-0.423 0.945-0.945s-0.423-0.945-0.945-0.945z"></path>
<path d="M16 21.878c-0.522 0-0.945 0.423-0.945 0.945v4.442c0 0.522 0.423 0.945 0.945 0.945s0.945-0.423 0.945-0.945v-4.442c0-0.522-0.423-0.945-0.945-0.945z"></path>
<path d="M21.48 26.32c-0.877 0-1.591-0.714-1.591-1.591v-1.907c0-0.522-0.423-0.945-0.945-0.945s-0.945 0.423-0.945 0.945v1.907c0 1.919 1.561 3.481 3.481 3.481 0.522 0 0.945-0.423 0.945-0.945s-0.423-0.945-0.945-0.945z"></path>
<path d="M13.055 21.878c-0.522 0-0.945 0.423-0.945 0.945v1.907c0 0.877-0.714 1.591-1.591 1.591-0.522 0-0.945 0.423-0.945 0.945s0.423 0.945 0.945 0.945c1.919 0 3.481-1.561 3.481-3.481v-1.907c0-0.522-0.423-0.945-0.945-0.945z"></path>
</symbol>
<symbol id="icon-single-bed" viewBox="0 0 32 32">
<path d="M28.361 14.356v-8.898c0-1.809-1.472-3.281-3.281-3.281h-18.16c-1.809 0-3.281 1.472-3.281 3.281v8.898c-2.085 0.502-3.639 2.381-3.639 4.617v6.636c0 0.526 0.427 0.953 0.953 0.953h2.686v2.306c0 0.526 0.427 0.953 0.953 0.953s0.953-0.427 0.953-0.953v-2.306h20.909v2.306c0 0.526 0.427 0.953 0.953 0.953s0.953-0.427 0.953-0.953v-2.306h2.686c0.526 0 0.953-0.427 0.953-0.953v-6.636c0-2.236-1.554-4.116-3.639-4.617zM5.546 5.459c0-0.758 0.617-1.375 1.374-1.375h18.16c0.758 0 1.375 0.617 1.375 1.375v8.765h-3.15v-1.504c0-2.492-2.027-4.519-4.519-4.519h-5.57c-2.492 0-4.519 2.027-4.519 4.519v1.504h-3.15v-8.765zM21.397 12.72v1.504h-10.795v-1.504c0-1.441 1.172-2.612 2.612-2.612h5.57c1.441-0 2.613 1.172 2.613 2.613zM1.907 24.657v-5.683c0-1.568 1.275-2.843 2.843-2.843h22.501c1.568 0 2.843 1.275 2.843 2.843v5.683h-28.187z"></path>
</symbol>
<symbol id="icon-do-not-disturb" viewBox="0 0 32 32">
<path d="M29.165 2.825c-3.774-3.775-9.945-3.745-13.755 0.065l-14.168 14.168c-0.801 0.801-1.242 1.866-1.242 2.998s0.441 2.197 1.242 2.998l7.694 7.695c0.827 0.827 1.912 1.24 2.998 1.24s2.171-0.413 2.998-1.24l9.077-9.077c0.801-0.801 1.242-1.866 1.242-2.998s-0.441-2.197-1.242-2.998l-3.917-3.917c-1.165-1.165-1.165-3.062 0-4.227 1.193-1.193 3.083-1.257 4.303-0.146 0.631 0.574 0.989 1.36 1.009 2.212 0.020 0.854-0.3 1.655-0.902 2.257-0.183 0.183-0.286 0.431-0.286 0.689s0.103 0.507 0.286 0.689l3.283 3.283c0.381 0.381 0.998 0.381 1.379 0 1.829-1.829 2.836-4.26 2.835-6.845s-1.006-5.017-2.835-6.845zM28.433 14.404l-1.927-1.927c0.576-0.855 0.874-1.866 0.849-2.926-0.032-1.39-0.617-2.672-1.645-3.609-1.992-1.814-5.064-1.722-6.995 0.209-1.926 1.926-1.926 5.059 0 6.985l3.917 3.917c0.893 0.893 0.893 2.345 0 3.238l-9.077 9.077c-0.432 0.433-1.007 0.671-1.619 0.671s-1.187-0.238-1.619-0.671l-7.694-7.694c-0.432-0.433-0.671-1.007-0.671-1.619s0.238-1.186 0.671-1.619l14.168-14.168c1.537-1.537 3.551-2.306 5.558-2.306 1.976 0 3.944 0.747 5.439 2.242 1.46 1.46 2.264 3.401 2.264 5.466 0 1.736-0.568 3.385-1.617 4.734z"></path>
<path d="M16.515 15.475c-1.995-1.995-5.242-1.995-7.237 0-0.967 0.967-1.499 2.252-1.499 3.619s0.532 2.652 1.499 3.619c0.967 0.967 2.252 1.499 3.619 1.499s2.652-0.532 3.619-1.499c1.995-1.995 1.995-5.242 0-7.237zM15.136 21.333c-0.598 0.598-1.394 0.928-2.24 0.928s-1.641-0.329-2.24-0.928c-0.361-0.36-0.623-0.793-0.775-1.265h6.027c-0.149 0.463-0.406 0.898-0.772 1.265zM9.882 18.118c0.152-0.472 0.414-0.904 0.775-1.265 0.618-0.617 1.428-0.926 2.24-0.926s1.622 0.309 2.24 0.926c0.367 0.367 0.624 0.802 0.773 1.265h-6.027z"></path>
</symbol>
<symbol id="icon-minibar" viewBox="0 0 32 32">
<path d="M27.311 0h-22.621c-2.269 0-4.115 1.846-4.115 4.115v23.77c0 2.269 1.846 4.115 4.115 4.115h22.621c2.269 0 4.115-1.846 4.115-4.115v-23.77c0-2.269-1.846-4.115-4.115-4.115zM11.989 16.604c0.514 0.556 0.797 1.279 0.797 2.036v0.745h-5.537v-0.745c0-0.757 0.283-1.481 0.797-2.036 0.836-0.904 1.297-2.081 1.297-3.312v-3.802h1.348v3.802c0 1.232 0.461 2.408 1.297 3.312zM12.787 21.265v4.065h-5.537v-4.065h5.537zM12.787 30.121h-5.537v-2.913h5.537v2.913zM24.75 30.121h-5.537v-2.913h5.537v2.913zM23.953 16.604c0.514 0.556 0.797 1.279 0.797 2.036v0.745h-5.537v-0.745c0-0.757 0.283-1.481 0.797-2.036 0.836-0.904 1.297-2.081 1.297-3.312v-3.802h1.348v3.802c0 1.232 0.461 2.408 1.297 3.312zM24.75 21.265v4.065h-5.537v-4.065h5.537zM29.547 27.885c0 1.233-1.003 2.236-2.236 2.236h-0.682v-11.48c0-1.232-0.461-2.408-1.297-3.312-0.514-0.556-0.797-1.279-0.797-2.037v-4.741c0-0.519-0.421-0.939-0.939-0.939h-3.227c-0.519 0-0.939 0.421-0.939 0.939v4.741c0 0.757-0.283 1.481-0.797 2.037-0.836 0.904-1.297 2.081-1.297 3.312v11.48h-2.669v-11.48c0-1.232-0.461-2.408-1.297-3.312-0.514-0.556-0.797-1.279-0.797-2.037v-4.741c0-0.519-0.421-0.939-0.939-0.939h-3.227c-0.519 0-0.939 0.421-0.939 0.939v4.741c0 0.757-0.283 1.481-0.797 2.037-0.836 0.904-1.297 2.081-1.297 3.312v11.48h-0.682c-1.233 0-2.236-1.003-2.236-2.236v-23.77c0-1.233 1.003-2.236 2.236-2.236h22.621c1.233 0 2.236 1.003 2.236 2.236v23.77z"></path>
</symbol>
<symbol id="icon-no-smoke" viewBox="0 0 32 32">
<path d="M28.607 27.25l-8.007-8.007h6.988c0.53 0 0.959-0.43 0.959-0.959v-4.568c0-0.53-0.43-0.96-0.959-0.96h-13.475l-9.364-9.364c-0.375-0.375-0.982-0.375-1.357 0s-0.375 0.982 0 1.357l8.007 8.007h-10.44c-0.53 0-0.96 0.43-0.96 0.96v4.568c0 0.53 0.43 0.959 0.96 0.959h16.927l9.364 9.364c0.187 0.187 0.433 0.281 0.678 0.281s0.491-0.094 0.678-0.281c0.375-0.375 0.375-0.982-0-1.357zM8.232 17.325h-6.313v-2.649h6.313v2.649zM10.151 17.325v-2.649h3.168l2.649 2.649h-5.817zM16.032 14.675h10.597v2.649h-7.948l-2.649-2.649z"></path>
<path d="M31.041 12.757c-0.53 0-0.959 0.43-0.959 0.96v4.568c0 0.53 0.43 0.959 0.959 0.959s0.959-0.43 0.959-0.959v-4.568c0-0.53-0.43-0.96-0.959-0.96z"></path>
</symbol>
<symbol id="icon-bed" viewBox="0 0 32 32">
<path d="M29.031 14.526v-7.126c0-1.571-1.278-2.849-2.849-2.849h-20.363c-1.571 0-2.849 1.278-2.849 2.849v7.126c-1.71 0.473-2.969 2.042-2.969 3.9v5.415c0 0.525 0.425 0.95 0.95 0.95h2.019v1.709c0 0.525 0.425 0.95 0.95 0.95s0.95-0.425 0.95-0.95v-1.709h22.262v1.709c0 0.525 0.425 0.95 0.95 0.95s0.95-0.425 0.95-0.95v-1.709h2.019c0.525 0 0.95-0.425 0.95-0.95v-5.415c0-1.858-1.259-3.427-2.969-3.9zM4.869 7.4c0-0.523 0.426-0.949 0.949-0.949h20.364c0.523 0 0.949 0.426 0.949 0.949v6.979h-2.226v-1.907c0-1.658-1.349-3.007-3.007-3.007h-3.841c-0.795 0-1.519 0.311-2.057 0.817-0.538-0.506-1.262-0.817-2.057-0.817h-3.841c-1.658 0-3.007 1.349-3.007 3.007v1.907h-2.226v-6.979zM23.005 12.472v1.907h-6.055v-1.907c0-0.611 0.497-1.107 1.107-1.107h3.841c0.611 0 1.107 0.497 1.107 1.107zM15.050 12.472v1.907h-6.055v-1.907c0-0.611 0.497-1.107 1.107-1.107h3.841c0.611 0 1.107 0.497 1.107 1.107zM30.1 22.891h-28.2v-4.465c0-1.184 0.963-2.147 2.147-2.147h23.905c1.184 0 2.147 0.963 2.147 2.147v4.465z"></path>
</symbol>
</defs>
</svg>