<?xml version="1.0" encoding="utf-8"?>
<svg xmlns="http://www.w3.org/2000/svg" xmlns:xlink="http://www.w3.org/1999/xlink">
<symbol xmlns="http://www.w3.org/2000/svg" viewBox="0 0 24 24" id="phone-line">
    <path d="M9.36556 10.6821C10.302 12.3288 11.6712 13.698 13.3179 14.6344L14.2024 13.3961C14.4965 12.9845 15.0516 12.8573 15.4956 13.0998C16.9024 13.8683 18.4571 14.3353 20.0789 14.4637C20.599 14.5049 21 14.9389 21 15.4606V19.9234C21 20.4361 20.6122 20.8657 20.1022 20.9181C19.5723 20.9726 19.0377 21 18.5 21C9.93959 21 3 14.0604 3 5.5C3 4.96227 3.02742 4.42771 3.08189 3.89776C3.1343 3.38775 3.56394 3 4.07665 3H8.53942C9.0611 3 9.49513 3.40104 9.5363 3.92109C9.66467 5.54288 10.1317 7.09764 10.9002 8.50444C11.1427 8.9484 11.0155 9.50354 10.6039 9.79757L9.36556 10.6821ZM6.84425 10.0252L8.7442 8.66809C8.20547 7.50514 7.83628 6.27183 7.64727 5H5.00907C5.00303 5.16632 5 5.333 5 5.5C5 12.9558 11.0442 19 18.5 19C18.667 19 18.8337 18.997 19 18.9909V16.3527C17.7282 16.1637 16.4949 15.7945 15.3319 15.2558L13.9748 17.1558C13.4258 16.9425 12.8956 16.6915 12.3874 16.4061L12.3293 16.373C10.3697 15.2587 8.74134 13.6303 7.627 11.6707L7.59394 11.6126C7.30849 11.1044 7.05754 10.5742 6.84425 10.0252Z"></path>
</symbol>
<symbol xmlns="http://www.w3.org/2000/svg" viewBox="0 0 24 24" id="mail-send-line">
    <path d="M21 3C21.5523 3 22 3.44772 22 4V20.0066C22 20.5552 21.5447 21 21.0082 21H2.9918C2.44405 21 2 20.5551 2 20.0066V19H20V7.3L12 14.5L2 5.5V4C2 3.44772 2.44772 3 3 3H21ZM8 15V17H0V15H8ZM5 10V12H0V10H5ZM19.5659 5H4.43414L12 11.8093L19.5659 5Z"></path>
</symbol>
<symbol xmlns="http://www.w3.org/2000/svg" viewBox="0 0 24 24" id="whatsapp-line">
    <path d="M7.25361 18.4944L7.97834 18.917C9.18909 19.623 10.5651 20 12.001 20C16.4193 20 20.001 16.4183 20.001 12C20.001 7.58172 16.4193 4 12.001 4C7.5827 4 4.00098 7.58172 4.00098 12C4.00098 13.4363 4.37821 14.8128 5.08466 16.0238L5.50704 16.7478L4.85355 19.1494L7.25361 18.4944ZM2.00516 22L3.35712 17.0315C2.49494 15.5536 2.00098 13.8345 2.00098 12C2.00098 6.47715 6.47813 2 12.001 2C17.5238 2 22.001 6.47715 22.001 12C22.001 17.5228 17.5238 22 12.001 22C10.1671 22 8.44851 21.5064 6.97086 20.6447L2.00516 22ZM8.39232 7.30833C8.5262 7.29892 8.66053 7.29748 8.79459 7.30402C8.84875 7.30758 8.90265 7.31384 8.95659 7.32007C9.11585 7.33846 9.29098 7.43545 9.34986 7.56894C9.64818 8.24536 9.93764 8.92565 10.2182 9.60963C10.2801 9.76062 10.2428 9.95633 10.125 10.1457C10.0652 10.2428 9.97128 10.379 9.86248 10.5183C9.74939 10.663 9.50599 10.9291 9.50599 10.9291C9.50599 10.9291 9.40738 11.0473 9.44455 11.1944C9.45903 11.25 9.50521 11.331 9.54708 11.3991C9.57027 11.4368 9.5918 11.4705 9.60577 11.4938C9.86169 11.9211 10.2057 12.3543 10.6259 12.7616C10.7463 12.8783 10.8631 12.9974 10.9887 13.108C11.457 13.5209 11.9868 13.8583 12.559 14.1082L12.5641 14.1105C12.6486 14.1469 12.692 14.1668 12.8157 14.2193C12.8781 14.2457 12.9419 14.2685 13.0074 14.2858C13.0311 14.292 13.0554 14.2955 13.0798 14.2972C13.2415 14.3069 13.335 14.2032 13.3749 14.1555C14.0984 13.279 14.1646 13.2218 14.1696 13.2222V13.2238C14.2647 13.1236 14.4142 13.0888 14.5476 13.097C14.6085 13.1007 14.6691 13.1124 14.7245 13.1377C15.2563 13.3803 16.1258 13.7587 16.1258 13.7587L16.7073 14.0201C16.8047 14.0671 16.8936 14.1778 16.8979 14.2854C16.9005 14.3523 16.9077 14.4603 16.8838 14.6579C16.8525 14.9166 16.7738 15.2281 16.6956 15.3913C16.6406 15.5058 16.5694 15.6074 16.4866 15.6934C16.3743 15.81 16.2909 15.8808 16.1559 15.9814C16.0737 16.0426 16.0311 16.0714 16.0311 16.0714C15.8922 16.159 15.8139 16.2028 15.6484 16.2909C15.391 16.428 15.1066 16.5068 14.8153 16.5218C14.6296 16.5313 14.4444 16.5447 14.2589 16.5347C14.2507 16.5342 13.6907 16.4482 13.6907 16.4482C12.2688 16.0742 10.9538 15.3736 9.85034 14.402C9.62473 14.2034 9.4155 13.9885 9.20194 13.7759C8.31288 12.8908 7.63982 11.9364 7.23169 11.0336C7.03043 10.5884 6.90299 10.1116 6.90098 9.62098C6.89729 9.01405 7.09599 8.4232 7.46569 7.94186C7.53857 7.84697 7.60774 7.74855 7.72709 7.63586C7.85348 7.51651 7.93392 7.45244 8.02057 7.40811C8.13607 7.34902 8.26293 7.31742 8.39232 7.30833Z"></path>
</symbol>
<symbol xmlns="http://www.w3.org/2000/svg" viewBox="0 0 24 24" id="instagram-line">
    <path d="M12.001 9C10.3436 9 9.00098 10.3431 9.00098 12C9.00098 13.6573 10.3441 15 12.001 15C13.6583 15 15.001 13.6569 15.001 12C15.001 10.3427 13.6579 9 12.001 9ZM12.001 7C14.7614 7 17.001 9.2371 17.001 12C17.001 14.7605 14.7639 17 12.001 17C9.24051 17 7.00098 14.7629 7.00098 12C7.00098 9.23953 9.23808 7 12.001 7ZM18.501 6.74915C18.501 7.43926 17.9402 7.99917 17.251 7.99917C16.5609 7.99917 16.001 7.4384 16.001 6.74915C16.001 6.0599 16.5617 5.5 17.251 5.5C17.9393 5.49913 18.501 6.0599 18.501 6.74915ZM12.001 4C9.5265 4 9.12318 4.00655 7.97227 4.0578C7.18815 4.09461 6.66253 4.20007 6.17416 4.38967C5.74016 4.55799 5.42709 4.75898 5.09352 5.09255C4.75867 5.4274 4.55804 5.73963 4.3904 6.17383C4.20036 6.66332 4.09493 7.18811 4.05878 7.97115C4.00703 9.0752 4.00098 9.46105 4.00098 12C4.00098 14.4745 4.00753 14.8778 4.05877 16.0286C4.0956 16.8124 4.2012 17.3388 4.39034 17.826C4.5591 18.2606 4.7605 18.5744 5.09246 18.9064C5.42863 19.2421 5.74179 19.4434 6.17187 19.6094C6.66619 19.8005 7.19148 19.9061 7.97212 19.9422C9.07618 19.9939 9.46203 20 12.001 20C14.4755 20 14.8788 19.9934 16.0296 19.9422C16.8117 19.9055 17.3385 19.7996 17.827 19.6106C18.2604 19.4423 18.5752 19.2402 18.9074 18.9085C19.2436 18.5718 19.4445 18.2594 19.6107 17.8283C19.8013 17.3358 19.9071 16.8098 19.9432 16.0289C19.9949 14.9248 20.001 14.5389 20.001 12C20.001 9.52552 19.9944 9.12221 19.9432 7.97137C19.9064 7.18906 19.8005 6.66149 19.6113 6.17318C19.4434 5.74038 19.2417 5.42635 18.9084 5.09255C18.573 4.75715 18.2616 4.55693 17.8271 4.38942C17.338 4.19954 16.8124 4.09396 16.0298 4.05781C14.9258 4.00605 14.5399 4 12.001 4ZM12.001 2C14.7176 2 15.0568 2.01 16.1235 2.06C17.1876 2.10917 17.9135 2.2775 18.551 2.525C19.2101 2.77917 19.7668 3.1225 20.3226 3.67833C20.8776 4.23417 21.221 4.7925 21.476 5.45C21.7226 6.08667 21.891 6.81333 21.941 7.8775C21.9885 8.94417 22.001 9.28333 22.001 12C22.001 14.7167 21.991 15.0558 21.941 16.1225C21.8918 17.1867 21.7226 17.9125 21.476 18.55C21.2218 19.2092 20.8776 19.7658 20.3226 20.3217C19.7668 20.8767 19.2076 21.22 18.551 21.475C17.9135 21.7217 17.1876 21.89 16.1235 21.94C15.0568 21.9875 14.7176 22 12.001 22C9.28431 22 8.94514 21.99 7.87848 21.94C6.81431 21.8908 6.08931 21.7217 5.45098 21.475C4.79264 21.2208 4.23514 20.8767 3.67931 20.3217C3.12348 19.7658 2.78098 19.2067 2.52598 18.55C2.27848 17.9125 2.11098 17.1867 2.06098 16.1225C2.01348 15.0558 2.00098 14.7167 2.00098 12C2.00098 9.28333 2.01098 8.94417 2.06098 7.8775C2.11014 6.8125 2.27848 6.0875 2.52598 5.45C2.78014 4.79167 3.12348 4.23417 3.67931 3.67833C4.23514 3.1225 4.79348 2.78 5.45098 2.525C6.08848 2.2775 6.81348 2.11 7.87848 2.06C8.94514 2.0125 9.28431 2 12.001 2Z"></path>
</symbol>
<symbol xmlns="http://www.w3.org/2000/svg" viewBox="0 0 24 24" id="facebook-circle-line">
    <path d="M13.001 19.9381C16.9473 19.446 20.001 16.0796 20.001 12C20.001 7.58172 16.4193 4 12.001 4C7.5827 4 4.00098 7.58172 4.00098 12C4.00098 16.0796 7.05467 19.446 11.001 19.9381V14H9.00098V12H11.001V10.3458C11.001 9.00855 11.1402 8.52362 11.4017 8.03473C11.6631 7.54584 12.0468 7.16216 12.5357 6.9007C12.9184 6.69604 13.3931 6.57252 14.2227 6.51954C14.5519 6.49851 14.9781 6.52533 15.501 6.6V8.5H15.001C14.0837 8.5 13.7052 8.54332 13.4789 8.66433C13.3386 8.73939 13.2404 8.83758 13.1653 8.97793C13.0443 9.20418 13.001 9.42853 13.001 10.3458V12H15.501L15.001 14H13.001V19.9381ZM12.001 22C6.47813 22 2.00098 17.5228 2.00098 12C2.00098 6.47715 6.47813 2 12.001 2C17.5238 2 22.001 6.47715 22.001 12C22.001 17.5228 17.5238 22 12.001 22Z"></path>
</symbol>
<symbol xmlns="http://www.w3.org/2000/svg" viewBox="0 0 24 24" id="twitter-x-line">
    <path d="M10.4883 14.651L15.25 21H22.25L14.3917 10.5223L20.9308 3H18.2808L13.1643 8.88578L8.75 3H1.75L9.26086 13.0145L2.31915 21H4.96917L10.4883 14.651ZM16.25 19L5.75 5H7.75L18.25 19H16.25Z"></path>
</symbol>
<symbol xmlns="http://www.w3.org/2000/svg" viewBox="0 0 24 24" id="currency-line">
    <path d="M9 12.5 6.5 15 9 17.5 11.5 15 9 12.5ZM15 2.5C11.5724 2.5 8.76444 5.15304 8.51763 8.51763 5.15304 8.76445 2.5 11.5724 2.5 15 2.5 18.5899 5.41015 21.5 9 21.5 12.4276 21.5 15.2356 18.847 15.4824 15.4824 18.847 15.2356 21.5 12.4276 21.5 9 21.5 5.41015 18.5899 2.5 15 2.5ZM15.3234 13.4886C14.7575 11.1126 12.8874 9.24245 10.5114 8.67665 10.6772 6.34229 12.6234 4.5 15 4.5 17.4853 4.5 19.5 6.51472 19.5 9 19.5 11.3766 17.6577 13.3228 15.3234 13.4886ZM13.5 15C13.5 17.4853 11.4853 19.5 9 19.5 6.51472 19.5 4.5 17.4853 4.5 15 4.5 12.5147 6.51472 10.5 9 10.5 11.4853 10.5 13.5 12.5147 13.5 15ZM3 7C3 4.79086 4.79086 3 7 3H8.5V5H7C5.89543 5 5 5.89543 5 7V8.5H3V7ZM19 17V15.5H21V17C21 19.2091 19.2091 21 17 21H15.5V19H17C18.1046 19 19 18.1046 19 17Z"></path>
</symbol>
<symbol xmlns="http://www.w3.org/2000/svg" viewBox="0 0 24 24" id="arrow-right-up">
    <path d="M16.0037 9.41421L7.39712 18.0208L5.98291 16.6066L14.5895 8H7.00373V6H18.0037V17H16.0037V9.41421Z"></path>
</symbol>
</svg>