<svg width="150" height="150" viewBox="0 0 150 150" fill="none" xmlns="http://www.w3.org/2000/svg"><g clip-path="url(#clip0_403_271)"><path d="M125 150.25H25V137.75C25 129.462 28.2924 121.513 34.1529 115.653C40.0134 109.792 47.962 106.5 56.25 106.5H93.75C102.038 106.5 109.987 109.792 115.847 115.653C121.708 121.513 125 129.462 125 137.75V150.25ZM75 94C70.0754 94 65.1991 93.03 60.6494 91.1455C56.0997 89.2609 51.9657 86.4987 48.4835 83.0165C45.0013 79.5343 42.2391 75.4003 40.3545 70.8506C38.47 66.3009 37.5 61.4246 37.5 56.5C37.5 51.5754 38.47 46.6991 40.3545 42.1494C42.2391 37.5997 45.0013 33.4657 48.4835 29.9835C51.9657 26.5013 56.0997 23.7391 60.6494 21.8545C65.1991 19.97 70.0754 19 75 19C84.9456 19 94.4839 22.9509 101.516 29.9835C108.549 37.0161 112.5 46.5544 112.5 56.5C112.5 66.4456 108.549 75.9839 101.516 83.0165C94.4839 90.0491 84.9456 94 75 94V94Z" fill="#e0e0e0"/></g><defs><clipPath id="clip0_403_271"><rect width="150" height="150" fill="white"/></clipPath></defs></svg>